<svg width="1920" height="1130" viewBox="0 0 1920 1130" fill="none" xmlns="http://www.w3.org/2000/svg">
<path opacity="0.3" d="M351.879 937.826C360.565 972.128 384.873 1000.79 421.476 1023.23C458.081 1045.68 506.955 1061.89 564.695 1071.28C680.175 1090.07 831.024 1081.6 989.86 1041.37C1148.7 1001.15 1285.4 936.81 1378.02 865.322C1424.33 829.578 1459.6 792.062 1481.11 754.899C1502.61 717.739 1510.35 680.964 1501.67 646.661C1492.98 612.359 1468.67 583.698 1432.07 561.254C1395.46 538.808 1346.59 522.6 1288.85 513.204C1173.37 494.414 1022.52 502.892 863.684 543.115C704.848 583.337 568.145 647.677 475.527 719.165C429.218 754.909 393.949 792.425 372.438 829.588C350.93 866.748 343.192 903.523 351.879 937.826Z" stroke="url(#paint0_linear_23_73)"/>
<path opacity="0.3" d="M91.2723 1003.82C103.912 1053.73 139.278 1095.42 192.493 1128.05C245.711 1160.68 316.752 1184.24 400.663 1197.89C568.484 1225.2 787.689 1212.88 1018.49 1154.43C1249.29 1095.98 1447.94 1002.49 1582.54 898.602C1649.84 846.656 1701.1 792.127 1732.38 738.099C1763.65 684.073 1774.91 630.58 1762.27 580.667C1749.63 530.755 1714.27 489.07 1661.05 456.439C1607.83 423.807 1536.79 400.25 1452.88 386.596C1285.06 359.289 1065.85 371.611 835.054 430.057C604.254 488.504 405.604 581.997 271.006 685.886C203.707 737.832 152.44 792.361 121.168 846.389C89.8966 900.414 78.6327 953.908 91.2723 1003.82Z" stroke="url(#paint1_linear_23_73)"/>
<path opacity="0.3" d="M-225.837 1084.12C-208.388 1153.03 -159.566 1210.56 -86.1359 1255.59C-12.7035 1300.62 85.3104 1333.12 201.067 1351.95C432.578 1389.62 734.959 1372.62 1053.33 1292C1371.7 1211.38 1645.72 1082.41 1831.4 939.096C1924.24 867.437 1994.98 792.205 2038.13 717.655C2081.28 643.107 2096.83 569.272 2079.38 500.365C2061.93 431.457 2013.11 373.924 1939.68 328.898C1866.25 283.871 1768.23 251.372 1652.48 232.536C1420.97 194.866 1118.58 211.865 800.217 292.487C481.849 373.108 207.821 502.075 22.1422 645.392C-70.6979 717.051 -141.431 792.283 -184.582 866.833C-227.732 941.38 -243.287 1015.22 -225.837 1084.12Z" stroke="url(#paint2_linear_23_73)"/>
<defs>
<linearGradient id="paint0_linear_23_73" x1="1461.85" y1="626.795" x2="465.789" y2="1040.02" gradientUnits="userSpaceOnUse">
<stop stop-color="#484848"/>
<stop offset="0.491388" stop-color="#484848" stop-opacity="0.36"/>
<stop offset="1" stop-color="#484848"/>
</linearGradient>
<linearGradient id="paint1_linear_23_73" x1="1704.2" y1="551.859" x2="256.995" y2="1152.25" gradientUnits="userSpaceOnUse">
<stop stop-color="#484848"/>
<stop offset="0.491388" stop-color="#484848" stop-opacity="0.36"/>
<stop offset="1" stop-color="#484848"/>
</linearGradient>
<linearGradient id="paint2_linear_23_73" x1="1999.1" y1="460.676" x2="2.93269" y2="1288.81" gradientUnits="userSpaceOnUse">
<stop stop-color="#484848"/>
<stop offset="0.491388" stop-color="#484848" stop-opacity="0.36"/>
<stop offset="1" stop-color="#484848"/>
</linearGradient>
</defs>
</svg>
