<svg width="1507" height="337" viewBox="0 0 1507 337" fill="none" xmlns="http://www.w3.org/2000/svg">
<g opacity="0.03">
<mask id="path-1-outside-1_38_195" maskUnits="userSpaceOnUse" x="-2.38303" y="-2.38629" width="1510.96" height="341.863" fill="black">
<rect fill="white" x="-2.38303" y="-2.38629" width="1510.96" height="341.863"/>
<path d="M63.2257 288.336C35.3316 291.327 12.1971 272.516 9.18811 244.451C6.1791 216.386 24.8001 193.099 52.8653 190.09C75.1121 187.704 96.2414 199.114 102.96 221.415L82.9378 223.562C78.0781 212.139 66.942 206.755 54.7918 208.058C37.3366 209.93 26.752 224.22 28.6968 242.359C30.66 260.67 44.3574 272.184 61.2992 270.367C73.6205 269.046 83.3255 261.082 85.6716 249.06L105.694 246.913C103.74 270.664 85.3014 285.969 63.2257 288.336ZM161.464 178.446C163.86 178.189 165.761 178.159 167.167 178.354L169.276 198.034C167.547 198.046 165.988 198.04 163.421 198.315C145.795 200.205 133.34 211.58 135.835 234.854L140.459 277.978L121.121 280.052L111.03 185.931L130.368 183.857L132.368 202.51C136.602 188.728 146.576 180.042 161.464 178.446ZM244.159 171.657L264.866 169.437L217.253 313.019L196.546 315.239L215.489 257.817L169.547 179.657L190.254 177.437L223.518 235.839L244.159 171.657ZM327.359 160.66C352.002 158.018 372.838 176.382 375.921 205.132C379.003 233.882 362.876 256.209 337.72 258.906C323.003 260.484 310.937 254.508 302.955 244.632L309.23 303.158L289.892 305.231L275.214 168.328L294.552 166.254L296.276 182.34C301.965 170.825 312.471 162.256 327.359 160.66ZM331.631 240.865C347.888 239.122 358.357 225.363 356.412 207.223C354.486 189.255 341.491 177.839 325.063 179.6C308.634 181.362 297.499 195.365 299.426 213.333C301.371 231.473 315.203 242.626 331.631 240.865ZM460.348 222.91L465.458 238.287C460.655 241.918 450.106 246.857 439.325 248.013C419.987 250.086 403.625 239.55 400.837 213.539L396.562 173.666L379.106 175.537L377.161 157.397L394.617 155.526L392.323 134.135L411.202 127.783L413.954 153.453L452.629 149.306L454.574 167.446L415.899 171.592L420.064 210.439C421.532 224.129 428.671 230.98 440.821 229.677C446.811 229.035 453.264 226.266 460.348 222.91ZM508.56 141.232C535.598 138.333 559.552 156.71 562.597 185.117C565.625 213.354 546.472 236.525 519.091 239.461C491.882 242.378 468.063 223.641 465.054 195.575C462.008 167.168 481.692 144.113 508.56 141.232ZM510.541 159.714C494.284 161.457 482.618 175.344 484.562 193.484C486.507 211.624 500.681 222.74 517.11 220.979C533.538 219.217 545.033 205.349 543.089 187.209C541.144 169.069 526.799 157.971 510.541 159.714ZM661.523 124.832C691.812 121.585 713.493 142.975 714.931 174.151L638.436 182.352C641.83 199.471 655.007 207.752 670.751 206.064C682.046 204.853 690.944 199.052 694.403 189.334L714.425 187.187C709.323 209.025 692.418 220.877 672.396 223.024C643.818 226.088 621.252 207.736 618.206 179.328C615.16 150.921 633.115 127.878 661.523 124.832ZM663.321 141.603C648.604 143.181 639.669 153.486 637.775 166.498L692.536 160.627C688.251 148.104 677.524 140.08 663.321 141.603ZM811.3 206.054L788.198 208.531L761.823 177.259L743.533 213.32L720.26 215.815L748.78 163.771L712.051 121.492L735.153 119.015L759.407 148.265L776.224 114.612L799.498 112.117L772.603 161.563L811.3 206.054ZM861.29 202.772C833.396 205.762 810.261 186.952 807.252 158.887C804.243 130.822 822.864 107.534 850.929 104.525C873.176 102.14 894.305 113.549 901.024 135.851L881.002 137.997C876.142 126.575 865.006 121.191 852.856 122.494C835.401 124.365 824.816 138.655 826.761 156.795C828.724 175.106 842.421 186.62 859.363 184.803C871.684 183.482 881.389 175.518 883.735 163.496L903.758 161.349C901.804 185.1 883.365 200.405 861.29 202.772ZM960.555 92.7718C981.604 90.515 995.925 103 998.383 125.932L1004.75 185.314L985.412 187.387L979.468 131.941C977.908 117.395 970.58 110.391 956.376 111.914C939.947 113.676 932.205 125.411 934.149 143.551L939.378 192.322L920.041 194.396L905.913 62.6261L925.251 60.5529L930.939 113.603C936.438 101.935 946.009 94.3313 960.555 92.7718ZM1083.47 81.6706L1102.81 79.5973L1112.9 173.718L1093.56 175.792L1091.87 160.048C1086.18 171.563 1075.64 179.79 1060.93 181.368C1035.77 184.065 1015.27 165.664 1012.19 136.914C1009.11 108.164 1025.58 85.8001 1050.22 83.1581C1065.11 81.5618 1077.19 87.7095 1085.2 97.7567L1083.47 81.6706ZM1063.05 162.446C1079.48 160.684 1090.63 146.852 1088.69 128.713C1086.76 110.744 1072.91 99.42 1056.48 101.181C1040.05 102.943 1029.77 116.854 1031.7 134.823C1033.65 152.962 1046.79 164.189 1063.05 162.446ZM1169.99 70.3175C1191.21 68.0424 1205.36 80.5462 1207.82 103.477L1214.18 162.859L1194.84 164.933L1188.9 109.487C1187.34 94.9407 1180.18 87.9188 1165.98 89.4416C1149.38 91.2213 1141.64 102.957 1143.58 121.096L1148.81 169.868L1129.47 171.941L1119.38 77.8203L1138.72 75.747L1140.39 91.3198C1145.89 79.652 1155.27 71.8954 1169.99 70.3175ZM1293.09 59.1962L1312.43 57.1229L1322.39 150.046C1325.4 178.111 1309.7 197.97 1281.81 200.96C1259.39 203.364 1237.78 193.91 1231.16 170.906L1251.18 168.759C1255.73 180.561 1266.78 185.089 1279.44 183.731C1296.72 181.878 1305.09 171.115 1303.13 152.804L1301.4 136.718C1295.51 147.909 1284.98 156.307 1270.44 157.867C1245.28 160.564 1224.78 142.163 1221.76 113.926C1218.73 85.69 1235.2 63.3258 1260.01 60.6654C1274.56 59.1058 1286.81 65.2351 1294.82 75.2823L1293.09 59.1962ZM1272.56 138.944C1288.99 137.183 1300.14 123.351 1298.25 105.725C1296.38 88.2698 1282.53 76.9456 1266.1 78.707C1249.67 80.4684 1239.39 94.3796 1241.27 111.835C1243.16 129.461 1256.3 140.688 1272.56 138.944ZM1374.3 48.4119C1404.59 45.1644 1426.27 66.5542 1427.71 97.7304L1351.22 105.932C1354.61 123.051 1367.79 131.331 1383.53 129.643C1394.83 128.432 1403.72 122.632 1407.18 112.914L1427.2 110.767C1422.1 132.605 1405.2 144.457 1385.18 146.603C1356.6 149.667 1334.03 131.315 1330.99 102.908C1327.94 74.5004 1345.9 51.4576 1374.3 48.4119ZM1376.1 65.1826C1361.38 66.7605 1352.45 77.0656 1350.56 90.0778L1405.32 84.2066C1401.03 71.6838 1390.3 63.6597 1376.1 65.1826ZM1485.42 36.4989C1487.81 36.242 1489.71 36.2113 1491.12 36.4068L1493.23 56.0867C1491.5 56.099 1489.94 56.093 1487.37 56.3682C1469.75 58.258 1457.29 69.633 1459.79 92.9066L1464.41 136.031L1445.07 138.104L1434.98 43.9833L1454.32 41.9101L1456.32 60.5631C1460.55 46.7807 1470.53 38.0951 1485.42 36.4989Z"/>
</mask>
<path d="M102.96 221.415L103.173 223.404L105.57 223.147L104.875 220.838L102.96 221.415ZM82.9378 223.562L81.0974 224.345L81.6776 225.708L83.151 225.55L82.9378 223.562ZM85.6716 249.06L85.4584 247.071L83.9912 247.229L83.7086 248.677L85.6716 249.06ZM105.694 246.913L107.687 247.077L107.885 244.667L105.48 244.925L105.694 246.913ZM63.0125 286.347C36.2305 289.219 14.0695 271.219 11.1767 244.238L7.19952 244.664C10.3248 273.814 34.4328 293.435 63.4389 290.325L63.0125 286.347ZM11.1767 244.238C8.28449 217.262 26.1207 194.968 53.0785 192.078L52.6521 188.101C23.4795 191.229 4.07375 215.51 7.19952 244.664L11.1767 244.238ZM53.0785 192.078C74.5289 189.778 94.648 200.758 101.045 221.992L104.875 220.838C97.8349 197.469 75.6954 185.63 52.6521 188.101L53.0785 192.078ZM102.747 219.426L82.7246 221.573L83.151 225.55L103.173 223.404L102.747 219.426ZM84.7782 222.779C79.5206 210.421 67.461 204.688 54.5786 206.069L55.005 210.047C66.423 208.823 76.6355 213.857 81.0974 224.345L84.7782 222.779ZM54.5786 206.069C45.3338 207.061 37.81 211.363 32.8731 217.903C27.9447 224.432 25.6886 233.062 26.7082 242.573L30.6854 242.146C29.7602 233.517 31.8241 225.932 36.0656 220.313C40.2985 214.706 46.7946 210.927 55.005 210.047L54.5786 206.069ZM26.7082 242.573C28.7778 261.875 43.3689 274.301 61.5124 272.356L61.086 268.379C45.346 270.066 32.5423 259.465 30.6854 242.146L26.7082 242.573ZM61.5124 272.356C74.5957 270.953 85.1001 262.43 87.6345 249.443L83.7086 248.677C81.5509 259.734 72.6453 267.14 61.086 268.379L61.5124 272.356ZM85.8848 251.049L105.907 248.902L105.48 244.925L85.4584 247.071L85.8848 251.049ZM103.7 246.749C101.838 269.383 84.3032 284.065 63.0125 286.347L63.4389 290.325C86.2995 287.874 105.641 271.945 107.687 247.077L103.7 246.749ZM167.167 178.354L169.155 178.141L168.989 176.588L167.442 176.373L167.167 178.354ZM169.276 198.034L169.291 200.034L171.501 200.018L171.265 197.821L169.276 198.034ZM140.459 277.978L140.672 279.967L142.661 279.754L142.447 277.765L140.459 277.978ZM121.121 280.052L119.133 280.265L119.346 282.253L121.334 282.04L121.121 280.052ZM111.03 185.931L110.817 183.942L108.828 184.155L109.041 186.144L111.03 185.931ZM130.368 183.857L132.356 183.644L132.143 181.655L130.154 181.869L130.368 183.857ZM132.368 202.51L130.379 202.724L134.279 203.098L132.368 202.51ZM161.677 180.435C164.007 180.185 165.721 180.172 166.891 180.335L167.442 176.373C165.801 176.145 163.713 176.193 161.251 176.457L161.677 180.435ZM165.178 178.567L167.288 198.247L171.265 197.821L169.155 178.141L165.178 178.567ZM169.262 196.034C167.53 196.046 165.883 196.04 163.208 196.327L163.635 200.304C166.093 200.04 167.564 200.046 169.291 200.034L169.262 196.034ZM163.208 196.327C154.036 197.31 145.974 200.79 140.548 207.283C135.108 213.793 132.557 223.042 133.847 235.067L137.824 234.641C136.618 223.392 139.047 215.317 143.617 209.848C148.202 204.363 155.181 201.21 163.635 200.304L163.208 196.327ZM133.847 235.067L138.47 278.192L142.447 277.765L137.824 234.641L133.847 235.067ZM140.246 275.99L120.908 278.063L121.334 282.04L140.672 279.967L140.246 275.99ZM123.11 279.838L113.019 185.717L109.041 186.144L119.133 280.265L123.11 279.838ZM111.243 187.919L130.581 185.846L130.154 181.869L110.817 183.942L111.243 187.919ZM128.379 184.07L130.379 202.724L134.356 202.297L132.356 183.644L128.379 184.07ZM134.279 203.098C138.286 190.056 147.609 181.943 161.677 180.435L161.251 176.457C145.542 178.142 134.918 187.4 130.456 201.923L134.279 203.098ZM244.159 171.657L243.946 169.669L242.653 169.807L242.255 171.045L244.159 171.657ZM264.866 169.437L266.764 170.067L267.742 167.117L264.653 167.448L264.866 169.437ZM217.253 313.019L217.466 315.008L218.746 314.87L219.151 313.648L217.253 313.019ZM196.546 315.239L194.647 314.612L193.675 317.558L196.76 317.228L196.546 315.239ZM215.489 257.817L217.388 258.444L217.672 257.584L217.213 256.804L215.489 257.817ZM169.547 179.657L169.334 177.668L166.252 177.998L167.823 180.67L169.547 179.657ZM190.254 177.437L191.991 176.447L191.343 175.308L190.04 175.448L190.254 177.437ZM223.518 235.839L221.78 236.829L224.03 240.779L225.422 236.451L223.518 235.839ZM244.373 173.646L265.079 171.426L264.653 167.448L243.946 169.669L244.373 173.646ZM262.968 168.808L215.355 312.389L219.151 313.648L266.764 170.067L262.968 168.808ZM217.04 311.03L196.333 313.25L196.76 317.228L217.466 315.008L217.04 311.03ZM198.446 315.866L217.388 258.444L213.59 257.191L194.647 314.612L198.446 315.866ZM217.213 256.804L171.271 178.643L167.823 180.67L213.765 258.831L217.213 256.804ZM169.76 181.645L190.467 179.425L190.04 175.448L169.334 177.668L169.76 181.645ZM188.516 178.426L221.78 236.829L225.256 234.849L191.991 176.447L188.516 178.426ZM225.422 236.451L246.063 172.269L242.255 171.045L221.614 235.226L225.422 236.451ZM302.955 244.632L304.51 243.374L300.242 238.094L300.966 244.845L302.955 244.632ZM309.23 303.158L309.443 305.146L311.431 304.933L311.218 302.945L309.23 303.158ZM289.892 305.231L287.903 305.444L288.117 307.433L290.105 307.22L289.892 305.231ZM275.214 168.328L275.001 166.339L273.012 166.552L273.225 168.541L275.214 168.328ZM294.551 166.254L296.54 166.041L296.327 164.053L294.338 164.266L294.551 166.254ZM296.276 182.34L294.288 182.554L295.021 189.396L298.069 183.226L296.276 182.34ZM327.573 162.648C350.908 160.146 370.944 177.473 373.932 205.345L377.909 204.919C374.733 175.291 353.095 155.889 327.146 158.671L327.573 162.648ZM373.932 205.345C376.921 233.223 361.351 254.361 337.506 256.918L337.933 260.895C364.4 258.057 381.085 234.541 377.909 204.919L373.932 205.345ZM337.506 256.918C323.513 258.418 312.097 252.761 304.51 243.374L301.399 245.889C309.778 256.255 322.493 262.55 337.933 260.895L337.506 256.918ZM300.966 244.845L307.241 303.371L311.218 302.945L304.943 244.418L300.966 244.845ZM309.016 301.169L289.679 303.242L290.105 307.22L309.443 305.146L309.016 301.169ZM291.881 305.018L277.202 168.114L273.225 168.541L287.903 305.444L291.881 305.018ZM275.427 170.316L294.765 168.243L294.338 164.266L275.001 166.339L275.427 170.316ZM292.563 166.468L294.288 182.554L298.265 182.127L296.54 166.041L292.563 166.468ZM298.069 183.226C303.482 172.271 313.423 164.165 327.573 162.648L327.146 158.671C311.519 160.347 300.449 169.38 294.483 181.455L298.069 183.226ZM331.844 242.853C340.506 241.925 347.701 237.776 352.452 231.386C357.196 225.007 359.42 216.515 358.401 207.01L354.423 207.437C355.349 216.072 353.311 223.529 349.242 228.999C345.182 234.46 339.013 238.062 331.418 238.876L331.844 242.853ZM358.401 207.01C357.391 197.596 353.464 189.765 347.497 184.512C341.518 179.249 333.601 176.673 324.849 177.612L325.276 181.589C332.953 180.766 339.747 183.018 344.854 187.514C349.973 192.021 353.506 198.883 354.423 207.437L358.401 207.01ZM324.849 177.612C307.24 179.5 295.402 194.564 297.437 213.546L301.415 213.12C299.597 196.165 310.028 183.224 325.276 181.589L324.849 177.612ZM297.437 213.546C299.492 232.708 314.242 244.74 331.844 242.853L331.418 238.876C316.163 240.512 303.25 230.238 301.415 213.12L297.437 213.546ZM460.348 222.91L462.246 222.279L461.533 220.135L459.492 221.103L460.348 222.91ZM465.458 238.287L466.664 239.882L467.809 239.017L467.356 237.656L465.458 238.287ZM396.562 173.666L398.55 173.452L398.337 171.464L396.348 171.677L396.562 173.666ZM379.106 175.537L377.118 175.75L377.331 177.739L379.32 177.526L379.106 175.537ZM377.161 157.397L376.948 155.409L374.96 155.622L375.173 157.611L377.161 157.397ZM394.617 155.526L394.83 157.514L396.818 157.301L396.605 155.313L394.617 155.526ZM392.323 134.135L391.685 132.239L390.163 132.751L390.335 134.348L392.323 134.135ZM411.202 127.783L413.191 127.57L412.925 125.093L410.564 125.888L411.202 127.783ZM413.954 153.453L411.966 153.666L412.179 155.654L414.167 155.441L413.954 153.453ZM452.629 149.306L454.618 149.093L454.405 147.104L452.416 147.317L452.629 149.306ZM454.574 167.446L454.788 169.434L456.776 169.221L456.563 167.233L454.574 167.446ZM415.899 171.592L415.686 169.604L413.697 169.817L413.911 171.806L415.899 171.592ZM458.45 223.541L463.56 238.918L467.356 237.656L462.246 222.279L458.45 223.541ZM464.252 236.691C459.731 240.109 449.523 244.908 439.112 246.024L439.538 250.001C450.689 248.806 461.579 243.726 466.664 239.882L464.252 236.691ZM439.112 246.024C429.859 247.016 421.502 244.979 415.144 239.761C408.788 234.546 404.178 225.947 402.825 213.325L398.848 213.752C400.284 227.142 405.249 236.817 412.606 242.854C419.96 248.888 429.453 251.082 439.538 250.001L439.112 246.024ZM402.825 213.325L398.55 173.452L394.573 173.879L398.848 213.752L402.825 213.325ZM396.348 171.677L378.893 173.548L379.32 177.526L396.775 175.654L396.348 171.677ZM381.095 175.324L379.15 157.184L375.173 157.611L377.118 175.75L381.095 175.324ZM377.375 159.386L394.83 157.514L394.403 153.537L376.948 155.409L377.375 159.386ZM396.605 155.313L394.312 133.922L390.335 134.348L392.628 155.739L396.605 155.313ZM392.961 136.03L411.84 129.679L410.564 125.888L391.685 132.239L392.961 136.03ZM409.214 127.996L411.966 153.666L415.943 153.239L413.191 127.57L409.214 127.996ZM414.167 155.441L452.843 151.295L452.416 147.317L413.741 151.464L414.167 155.441ZM450.641 149.519L452.586 167.659L456.563 167.233L454.618 149.093L450.641 149.519ZM454.361 165.457L415.686 169.604L416.112 173.581L454.788 169.434L454.361 165.457ZM413.911 171.806L418.075 210.652L422.053 210.225L417.888 171.379L413.911 171.806ZM418.075 210.652C418.838 217.769 421.107 223.434 425.071 227.141C429.082 230.893 434.532 232.363 441.034 231.666L440.608 227.689C434.96 228.294 430.765 226.99 427.803 224.22C424.792 221.404 422.757 216.799 422.053 210.225L418.075 210.652ZM441.034 231.666C447.407 230.982 454.149 228.06 461.204 224.717L459.492 221.103C452.38 224.472 446.214 227.087 440.608 227.689L441.034 231.666ZM508.773 143.221C534.731 140.438 557.683 158.04 560.609 185.331L564.586 184.904C561.421 155.38 536.465 136.229 508.347 139.244L508.773 143.221ZM560.609 185.331C563.518 212.464 545.165 234.654 518.878 237.472L519.304 241.449C547.779 238.396 567.732 214.243 564.586 184.904L560.609 185.331ZM518.878 237.472C492.762 240.272 469.933 222.325 467.042 195.362L463.065 195.789C466.192 224.957 491.001 244.484 519.304 241.449L518.878 237.472ZM467.042 195.362C464.117 168.076 482.981 145.986 508.773 143.221L508.347 139.244C480.404 142.24 459.899 166.26 463.065 195.789L467.042 195.362ZM510.328 157.726C492.935 159.59 480.515 174.497 482.574 193.697L486.551 193.271C484.72 176.191 495.633 163.324 510.754 161.703L510.328 157.726ZM482.574 193.697C484.632 212.89 499.751 224.851 517.323 222.967L516.896 218.99C501.611 220.629 488.383 210.358 486.551 193.271L482.574 193.697ZM517.323 222.967C534.894 221.083 547.135 206.188 545.077 186.996L541.1 187.422C542.932 204.509 532.182 217.351 516.896 218.99L517.323 222.967ZM545.077 186.996C543.019 167.796 527.721 155.861 510.328 157.726L510.754 161.703C525.876 160.082 539.269 170.343 541.1 187.422L545.077 186.996ZM714.931 174.151L715.144 176.14L717.016 175.939L716.929 174.059L714.931 174.151ZM638.436 182.352L638.223 180.364L636.049 180.597L636.474 182.741L638.436 182.352ZM694.403 189.334L694.189 187.346L692.94 187.479L692.518 188.664L694.403 189.334ZM714.425 187.187L716.372 187.642L717.013 184.898L714.211 185.199L714.425 187.187ZM637.775 166.498L635.796 166.21L635.425 168.762L637.988 168.487L637.775 166.498ZM692.536 160.627L692.75 162.616L695.239 162.349L694.429 159.98L692.536 160.627ZM661.736 126.821C676.337 125.256 688.74 129.625 697.675 138.039C706.628 146.47 712.234 159.094 712.933 174.243L716.929 174.059C716.189 158.032 710.236 144.373 700.417 135.127C690.58 125.863 676.998 121.162 661.309 122.844L661.736 126.821ZM714.718 172.162L638.223 180.364L638.649 184.341L715.144 176.14L714.718 172.162ZM636.474 182.741C638.259 191.743 642.655 198.567 648.812 202.897C654.955 207.217 662.688 208.94 670.964 208.052L670.538 204.075C663.07 204.876 656.342 203.302 651.113 199.625C645.896 195.956 642.007 190.081 640.398 181.963L636.474 182.741ZM670.964 208.052C682.818 206.782 692.508 200.622 696.287 190.005L692.518 188.664C689.38 197.482 681.273 202.924 670.538 204.075L670.964 208.052ZM694.616 191.323L714.638 189.176L714.211 185.199L694.189 187.346L694.616 191.323ZM712.477 186.732C707.6 207.608 691.506 218.964 672.183 221.035L672.61 225.013C693.331 222.791 711.046 210.443 716.372 187.642L712.477 186.732ZM672.183 221.035C644.707 223.981 623.123 206.429 620.195 179.115L616.217 179.542C619.38 209.043 642.928 228.195 672.61 225.013L672.183 221.035ZM620.195 179.115C617.263 151.769 634.463 129.745 661.736 126.821L661.309 122.844C631.767 126.011 613.058 150.073 616.217 179.542L620.195 179.115ZM663.107 139.615C647.386 141.3 637.807 152.394 635.796 166.21L639.754 166.786C641.531 154.578 649.821 145.062 663.534 143.592L663.107 139.615ZM637.988 168.487L692.75 162.616L692.323 158.638L637.562 164.51L637.988 168.487ZM694.429 159.98C689.873 146.665 678.334 137.982 663.107 139.615L663.534 143.592C676.715 142.179 686.63 149.543 690.644 161.275L694.429 159.98ZM811.3 206.054L811.513 208.043L815.325 207.634L812.809 204.742L811.3 206.054ZM788.198 208.531L786.669 209.821L787.354 210.633L788.411 210.52L788.198 208.531ZM761.823 177.259L763.352 175.97L761.405 173.661L760.039 176.354L761.823 177.259ZM743.533 213.32L743.746 215.308L744.826 215.193L745.317 214.225L743.533 213.32ZM720.259 215.815L718.506 214.854L716.665 218.212L720.473 217.804L720.259 215.815ZM748.78 163.771L750.534 164.732L751.203 163.511L750.289 162.459L748.78 163.771ZM712.051 121.492L711.838 119.504L708.029 119.912L710.541 122.804L712.051 121.492ZM735.153 119.015L736.693 117.739L736.007 116.912L734.94 117.027L735.153 119.015ZM759.407 148.265L757.867 149.541L759.825 151.902L761.196 149.159L759.407 148.265ZM776.224 114.612L776.011 112.623L774.924 112.74L774.435 113.718L776.224 114.612ZM799.498 112.117L801.255 113.072L803.077 109.721L799.285 110.128L799.498 112.117ZM772.603 161.563L770.846 160.607L770.183 161.828L771.094 162.876L772.603 161.563ZM811.087 204.066L787.985 206.543L788.411 210.52L811.513 208.043L811.087 204.066ZM789.727 207.242L763.352 175.97L760.294 178.548L786.669 209.821L789.727 207.242ZM760.039 176.354L741.749 212.415L745.317 214.225L763.607 178.164L760.039 176.354ZM743.32 211.331L720.046 213.827L720.473 217.804L743.746 215.308L743.32 211.331ZM722.013 216.776L750.534 164.732L747.026 162.81L718.506 214.854L722.013 216.776ZM750.289 162.459L713.561 120.181L710.541 122.804L747.27 165.083L750.289 162.459ZM712.264 123.481L735.366 121.004L734.94 117.027L711.838 119.504L712.264 123.481ZM733.614 120.292L757.867 149.541L760.946 146.988L736.693 117.739L733.614 120.292ZM761.196 149.159L778.013 115.506L774.435 113.718L757.618 147.371L761.196 149.159ZM776.437 116.601L799.711 114.105L799.285 110.128L776.011 112.623L776.437 116.601ZM797.741 111.161L770.846 160.607L774.36 162.519L801.255 113.072L797.741 111.161ZM771.094 162.876L809.791 207.367L812.809 204.742L774.112 160.251L771.094 162.876ZM901.024 135.851L901.237 137.839L903.634 137.582L902.939 135.274L901.024 135.851ZM881.002 137.997L879.161 138.78L879.741 140.144L881.215 139.986L881.002 137.997ZM883.736 163.496L883.522 161.507L882.055 161.664L881.772 163.113L883.736 163.496ZM903.758 161.349L905.751 161.513L905.949 159.103L903.544 159.36L903.758 161.349ZM861.076 200.783C834.294 203.655 812.133 185.654 809.241 158.674L805.263 159.1C808.389 188.25 832.497 207.87 861.503 204.76L861.076 200.783ZM809.241 158.674C806.348 131.697 824.185 109.404 851.142 106.514L850.716 102.537C821.543 105.664 802.138 129.946 805.263 159.1L809.241 158.674ZM851.142 106.514C872.593 104.214 892.712 115.193 899.109 136.428L902.939 135.274C895.899 111.905 873.759 100.066 850.716 102.537L851.142 106.514ZM900.811 133.862L880.789 136.009L881.215 139.986L901.237 137.839L900.811 133.862ZM882.842 137.215C877.584 124.857 865.525 119.124 852.643 120.505L853.069 124.482C864.487 123.258 874.699 128.293 879.161 138.78L882.842 137.215ZM852.643 120.505C843.398 121.496 835.874 125.799 830.937 132.339C826.009 138.868 823.753 147.498 824.772 157.008L828.749 156.582C827.824 147.953 829.888 140.368 834.13 134.749C838.362 129.141 844.859 125.363 853.069 124.482L852.643 120.505ZM824.772 157.008C826.842 176.311 841.433 188.737 859.576 186.792L859.15 182.815C843.41 184.502 830.606 173.901 828.749 156.582L824.772 157.008ZM859.576 186.792C872.66 185.389 883.164 176.866 885.698 163.879L881.772 163.113C879.615 174.17 870.709 181.575 859.15 182.815L859.576 186.792ZM883.949 165.484L903.971 163.338L903.544 159.36L883.522 161.507L883.949 165.484ZM901.764 161.185C899.902 183.819 882.367 198.501 861.076 200.783L861.503 204.76C884.363 202.309 903.705 186.38 905.751 161.513L901.764 161.185ZM1004.75 185.314L1004.96 187.302L1006.95 187.089L1006.74 185.1L1004.75 185.314ZM985.412 187.387L983.424 187.6L983.637 189.589L985.625 189.375L985.412 187.387ZM939.378 192.322L939.592 194.311L941.58 194.098L941.367 192.109L939.378 192.322ZM920.041 194.396L918.052 194.609L918.266 196.597L920.254 196.384L920.041 194.396ZM905.913 62.6261L905.7 60.6375L903.711 60.8507L903.925 62.8393L905.913 62.6261ZM925.251 60.5529L927.239 60.3396L927.026 58.351L925.038 58.5643L925.251 60.5529ZM930.939 113.603L928.95 113.816L929.71 120.901L932.748 114.456L930.939 113.603ZM960.768 94.7604C970.839 93.6806 979.096 96.1359 985.123 101.411C991.171 106.704 995.204 115.04 996.395 126.145L1000.37 125.719C999.104 113.892 994.748 104.519 987.758 98.4013C980.747 92.2652 971.319 89.6062 960.342 90.7832L960.768 94.7604ZM996.395 126.145L1002.76 185.527L1006.74 185.1L1000.37 125.719L996.395 126.145ZM1004.54 183.325L985.199 185.398L985.625 189.375L1004.96 187.302L1004.54 183.325ZM987.401 187.174L981.456 131.728L977.479 132.154L983.424 187.6L987.401 187.174ZM981.456 131.728C980.649 124.2 978.314 118.247 973.992 114.407C969.632 110.533 963.615 109.127 956.163 109.926L956.589 113.903C963.341 113.179 968.089 114.513 971.335 117.397C974.618 120.314 976.727 125.136 977.479 132.154L981.456 131.728ZM956.163 109.926C947.489 110.856 940.867 114.463 936.727 120.454C932.621 126.395 931.156 134.396 932.161 143.764L936.138 143.337C935.198 134.566 936.631 127.628 940.018 122.727C943.371 117.875 948.834 114.734 956.589 113.903L956.163 109.926ZM932.161 143.764L937.39 192.536L941.367 192.109L936.138 143.337L932.161 143.764ZM939.165 190.334L919.828 192.407L920.254 196.384L939.592 194.311L939.165 190.334ZM922.03 194.182L907.902 62.4129L903.925 62.8393L918.052 194.609L922.03 194.182ZM906.126 64.6147L925.464 62.5415L925.038 58.5643L905.7 60.6375L906.126 64.6147ZM923.262 60.7661L928.95 113.816L932.927 113.39L927.239 60.3396L923.262 60.7661ZM932.748 114.456C937.962 103.393 946.943 96.2426 960.768 94.7604L960.342 90.7832C945.074 92.4201 934.915 100.477 929.129 112.75L932.748 114.456ZM1083.47 81.6706L1083.26 79.682L1081.27 79.8952L1081.48 81.8838L1083.47 81.6706ZM1102.81 79.5973L1104.8 79.3841L1104.58 77.3955L1102.6 77.6087L1102.81 79.5973ZM1112.9 173.718L1113.11 175.707L1115.1 175.494L1114.89 173.505L1112.9 173.718ZM1093.56 175.792L1091.57 176.005L1091.79 177.993L1093.78 177.78L1093.56 175.792ZM1091.87 160.048L1093.86 159.835L1093.13 152.992L1090.08 159.162L1091.87 160.048ZM1085.2 97.7567L1083.63 99.0026L1087.92 104.386L1087.18 97.5435L1085.2 97.7567ZM1083.68 83.6592L1103.02 81.5859L1102.6 77.6087L1083.26 79.682L1083.68 83.6592ZM1100.82 79.8105L1110.91 173.932L1114.89 173.505L1104.8 79.3841L1100.82 79.8105ZM1112.69 171.73L1093.35 173.803L1093.78 177.78L1113.11 175.707L1112.69 171.73ZM1095.55 175.578L1093.86 159.835L1089.89 160.261L1091.57 176.005L1095.55 175.578ZM1090.08 159.162C1084.68 170.089 1074.72 177.877 1060.71 179.379L1061.14 183.357C1076.56 181.703 1087.69 173.036 1093.67 160.934L1090.08 159.162ZM1060.71 179.379C1036.87 181.936 1017.17 164.578 1014.18 136.701L1010.2 137.127C1013.38 166.749 1034.67 186.194 1061.14 183.357L1060.71 179.379ZM1014.18 136.701C1011.19 108.829 1027.1 87.6487 1050.44 85.1467L1050.01 81.1695C1024.06 83.9516 1007.03 107.5 1010.2 137.127L1014.18 136.701ZM1050.44 85.1467C1064.59 83.6296 1076.02 89.4436 1083.63 99.0026L1086.76 96.5108C1078.37 85.9753 1065.64 79.4941 1050.01 81.1695L1050.44 85.1467ZM1087.18 97.5435L1085.46 81.4574L1081.48 81.8838L1083.21 97.9699L1087.18 97.5435ZM1063.26 164.434C1080.87 162.547 1092.73 147.661 1090.68 128.5L1086.7 128.926C1088.53 146.044 1078.09 158.821 1062.84 160.457L1063.26 164.434ZM1090.68 128.5C1088.64 109.517 1073.88 97.3048 1056.27 99.1927L1056.7 103.17C1071.94 101.535 1084.88 111.971 1086.7 128.926L1090.68 128.5ZM1056.27 99.1927C1047.52 100.131 1040.33 104.326 1035.6 110.737C1030.88 117.136 1028.7 125.621 1029.71 135.036L1033.69 134.609C1032.77 126.055 1034.77 118.601 1038.82 113.111C1042.86 107.634 1049.02 103.993 1056.7 103.17L1056.27 99.1927ZM1029.71 135.036C1030.73 144.54 1034.7 152.368 1040.69 157.597C1046.69 162.833 1054.6 165.363 1063.26 164.434L1062.84 160.457C1055.24 161.271 1048.45 159.059 1043.32 154.584C1038.19 150.1 1034.62 143.245 1033.69 134.609L1029.71 135.036ZM1214.18 162.859L1214.4 164.848L1216.38 164.635L1216.17 162.646L1214.18 162.859ZM1194.84 164.933L1192.86 165.146L1193.07 167.134L1195.06 166.921L1194.84 164.933ZM1148.81 169.868L1149.02 171.857L1151.01 171.643L1150.8 169.655L1148.81 169.868ZM1129.47 171.941L1127.48 172.155L1127.7 174.143L1129.69 173.93L1129.47 171.941ZM1119.38 77.8203L1119.17 75.8317L1117.18 76.0449L1117.39 78.0335L1119.38 77.8203ZM1138.72 75.747L1140.71 75.5338L1140.5 73.5452L1138.51 73.7584L1138.72 75.747ZM1140.39 91.3198L1138.4 91.533L1139.16 98.6178L1142.2 92.1725L1140.39 91.3198ZM1170.2 72.3061C1180.36 71.2168 1188.62 73.6746 1194.62 78.9476C1200.64 84.2402 1204.64 92.5794 1205.83 103.691L1209.8 103.264C1208.54 91.4443 1204.23 82.0659 1197.26 75.9425C1190.27 69.7996 1180.83 67.1432 1169.77 68.3289L1170.2 72.3061ZM1205.83 103.691L1212.19 163.073L1216.17 162.646L1209.8 103.264L1205.83 103.691ZM1213.97 160.871L1194.63 162.944L1195.06 166.921L1214.4 164.848L1213.97 160.871ZM1196.83 164.719L1190.89 109.274L1186.91 109.7L1192.86 165.146L1196.83 164.719ZM1190.89 109.274C1190.08 101.758 1187.8 95.8001 1183.52 91.9517C1179.2 88.0647 1173.22 86.654 1165.77 87.453L1166.19 91.4302C1172.94 90.7064 1177.64 92.0453 1180.84 94.925C1184.09 97.8434 1186.16 102.67 1186.91 109.7L1190.89 109.274ZM1165.77 87.453C1157.01 88.3914 1150.35 91.9992 1146.18 97.9929C1142.05 103.939 1140.59 111.942 1141.59 121.309L1145.57 120.883C1144.63 112.111 1146.06 105.177 1149.47 100.275C1152.84 95.4213 1158.35 92.2715 1166.19 91.4302L1165.77 87.453ZM1141.59 121.309L1146.82 170.081L1150.8 169.655L1145.57 120.883L1141.59 121.309ZM1148.6 167.879L1129.26 169.953L1129.69 173.93L1149.02 171.857L1148.6 167.879ZM1131.46 171.728L1121.37 77.6071L1117.39 78.0335L1127.48 172.155L1131.46 171.728ZM1119.6 79.8089L1138.93 77.7356L1138.51 73.7584L1119.17 75.8317L1119.6 79.8089ZM1136.73 75.9602L1138.4 91.533L1142.38 91.1066L1140.71 75.5338L1136.73 75.9602ZM1142.2 92.1725C1147.42 81.0878 1156.23 73.8041 1170.2 72.3061L1169.77 68.3289C1154.31 69.9866 1144.36 78.2161 1138.58 90.467L1142.2 92.1725ZM1293.09 59.1962L1292.88 57.2076L1290.89 57.4208L1291.1 59.4094L1293.09 59.1962ZM1312.43 57.1229L1314.42 56.9097L1314.2 54.9211L1312.22 55.1343L1312.43 57.1229ZM1231.16 170.906L1230.94 168.917L1228.58 169.171L1229.23 171.459L1231.16 170.906ZM1251.18 168.759L1253.04 168.039L1252.49 166.607L1250.96 166.771L1251.18 168.759ZM1301.4 136.718L1303.39 136.505L1302.69 129.981L1299.63 135.785L1301.4 136.718ZM1294.82 75.2823L1293.25 76.5282L1297.54 81.9112L1296.8 75.0691L1294.82 75.2823ZM1293.3 61.1848L1312.64 59.1115L1312.22 55.1343L1292.88 57.2076L1293.3 61.1848ZM1310.44 57.3361L1320.4 150.259L1324.38 149.833L1314.42 56.9097L1310.44 57.3361ZM1320.4 150.259C1321.86 163.871 1318.77 175.3 1312.12 183.661C1305.48 192.019 1295.1 197.523 1281.59 198.972L1282.02 202.949C1296.4 201.407 1307.83 195.486 1315.25 186.151C1322.67 176.819 1325.93 164.286 1324.38 149.833L1320.4 150.259ZM1281.59 198.972C1259.81 201.307 1239.35 192.134 1233.08 170.353L1229.23 171.459C1236.21 195.686 1258.97 205.42 1282.02 202.949L1281.59 198.972ZM1231.37 172.895L1251.39 170.748L1250.96 166.771L1230.94 168.917L1231.37 172.895ZM1249.31 169.479C1254.29 182.384 1266.4 187.141 1279.65 185.72L1279.23 181.743C1267.16 183.037 1257.17 178.738 1253.04 168.039L1249.31 169.479ZM1279.65 185.72C1288.66 184.754 1295.65 181.424 1300.09 175.658C1304.51 169.909 1306.13 162.066 1305.12 152.591L1301.14 153.017C1302.09 161.852 1300.51 168.547 1296.92 173.22C1293.34 177.877 1287.5 180.856 1279.23 181.743L1279.65 185.72ZM1305.12 152.591L1303.39 136.505L1299.41 136.931L1301.14 153.017L1305.12 152.591ZM1299.63 135.785C1294.01 146.449 1284.04 154.397 1270.22 155.878L1270.65 159.855C1285.92 158.218 1297 149.369 1303.17 137.65L1299.63 135.785ZM1270.22 155.878C1246.36 158.436 1226.68 141.063 1223.75 113.713L1219.77 114.14C1222.89 143.263 1244.19 162.692 1270.65 159.855L1270.22 155.878ZM1223.75 113.713C1220.82 86.3745 1236.7 65.1762 1260.23 62.654L1259.8 58.6768C1233.7 61.4753 1216.65 85.0056 1219.77 114.14L1223.75 113.713ZM1260.23 62.654C1274.03 61.1736 1285.64 66.9692 1293.25 76.5282L1296.38 74.0364C1287.99 63.501 1275.09 57.038 1259.8 58.6768L1260.23 62.654ZM1296.8 75.0691L1295.08 58.983L1291.1 59.4094L1292.83 75.4956L1296.8 75.0691ZM1272.77 140.933C1290.35 139.048 1302.24 124.183 1300.24 105.512L1296.26 105.938C1298.04 122.52 1287.62 135.318 1272.35 136.956L1272.77 140.933ZM1300.24 105.512C1298.26 87.0198 1283.48 74.8328 1265.89 76.7184L1266.32 80.6956C1281.59 79.0585 1294.5 89.5198 1296.26 105.938L1300.24 105.512ZM1265.89 76.7184C1248.23 78.6122 1237.3 93.637 1239.28 112.048L1243.25 111.622C1241.49 95.1221 1251.12 82.3245 1266.32 80.6956L1265.89 76.7184ZM1239.28 112.048C1241.27 130.646 1255.3 142.807 1272.77 140.933L1272.35 136.956C1257.31 138.568 1245.04 128.276 1243.25 111.622L1239.28 112.048ZM1427.71 97.7304L1427.92 99.719L1429.8 99.5184L1429.71 97.6382L1427.71 97.7304ZM1351.22 105.932L1351 103.943L1348.83 104.176L1349.25 106.321L1351.22 105.932ZM1407.18 112.914L1406.97 110.925L1405.72 111.059L1405.3 112.243L1407.18 112.914ZM1427.2 110.767L1429.15 111.222L1429.79 108.478L1426.99 108.778L1427.2 110.767ZM1350.55 90.0778L1348.58 89.7898L1348.2 92.3413L1350.77 92.0664L1350.55 90.0778ZM1405.32 84.2066L1405.53 86.1952L1408.02 85.9282L1407.21 83.559L1405.32 84.2066ZM1374.52 50.4005C1389.12 48.8351 1401.52 53.2047 1410.45 61.6183C1419.41 70.0493 1425.01 82.673 1425.71 97.8226L1429.71 97.6382C1428.97 81.6116 1423.02 67.9523 1413.2 58.7062C1403.36 49.4428 1389.78 44.7413 1374.09 46.4233L1374.52 50.4005ZM1427.5 95.7418L1351 103.943L1351.43 107.92L1427.92 99.719L1427.5 95.7418ZM1349.25 106.321C1351.04 115.322 1355.44 122.147 1361.59 126.476C1367.74 130.796 1375.47 132.519 1383.74 131.632L1383.32 127.655C1375.85 128.455 1369.12 126.882 1363.89 123.204C1358.68 119.536 1354.79 113.66 1353.18 105.543L1349.25 106.321ZM1383.74 131.632C1395.6 130.361 1405.29 124.202 1409.07 113.584L1405.3 112.243C1402.16 121.061 1394.05 126.504 1383.32 127.655L1383.74 131.632ZM1407.4 114.902L1427.42 112.756L1426.99 108.778L1406.97 110.925L1407.4 114.902ZM1425.26 110.312C1420.38 131.187 1404.29 142.543 1384.96 144.615L1385.39 148.592C1406.11 146.37 1423.83 134.023 1429.15 111.222L1425.26 110.312ZM1384.96 144.615C1357.49 147.561 1335.9 130.008 1332.97 102.695L1329 103.121C1332.16 132.622 1355.71 151.774 1385.39 148.592L1384.96 144.615ZM1332.97 102.695C1330.04 75.3484 1347.24 53.3245 1374.52 50.4005L1374.09 46.4233C1344.55 49.5907 1325.84 73.6525 1329 103.121L1332.97 102.695ZM1375.89 63.194C1360.17 64.8795 1350.59 75.9734 1348.58 89.7898L1352.53 90.3658C1354.31 78.1578 1362.6 68.6415 1376.31 67.1712L1375.89 63.194ZM1350.77 92.0664L1405.53 86.1952L1405.1 82.218L1350.34 88.0892L1350.77 92.0664ZM1407.21 83.559C1402.65 70.2447 1391.11 61.5615 1375.89 63.194L1376.31 67.1712C1389.49 65.758 1399.41 73.1229 1403.42 84.8541L1407.21 83.559ZM1491.12 36.4068L1493.11 36.1936L1492.94 34.641L1491.39 34.4259L1491.12 36.4068ZM1493.23 56.0867L1493.24 58.0866L1495.45 58.0709L1495.22 55.8735L1493.23 56.0867ZM1464.41 136.031L1464.62 138.02L1466.61 137.807L1466.4 135.818L1464.41 136.031ZM1445.07 138.104L1443.08 138.318L1443.3 140.306L1445.29 140.093L1445.07 138.104ZM1434.98 43.9833L1434.77 41.9947L1432.78 42.2079L1432.99 44.1965L1434.98 43.9833ZM1454.32 41.91L1456.31 41.6968L1456.1 39.7082L1454.11 39.9214L1454.32 41.91ZM1456.32 60.5631L1454.33 60.7763L1458.23 61.1505L1456.32 60.5631ZM1485.63 38.4875C1487.96 38.2378 1489.67 38.225 1490.84 38.3877L1491.39 34.4259C1489.75 34.1976 1487.67 34.2463 1485.2 34.5103L1485.63 38.4875ZM1489.13 36.62L1491.24 56.2999L1495.22 55.8735L1493.11 36.1936L1489.13 36.62ZM1493.21 54.0867C1491.48 54.0991 1489.84 54.0928 1487.16 54.3796L1487.59 58.3568C1490.05 58.0932 1491.52 58.0989 1493.24 58.0866L1493.21 54.0867ZM1487.16 54.3796C1477.99 55.3631 1469.93 58.8432 1464.5 65.336C1459.06 71.8454 1456.51 81.0949 1457.8 93.1198L1461.78 92.6934C1460.57 81.4446 1463 73.3699 1467.57 67.901C1472.15 62.4155 1479.13 59.2632 1487.59 58.3568L1487.16 54.3796ZM1457.8 93.1198L1462.42 136.244L1466.4 135.818L1461.78 92.6934L1457.8 93.1198ZM1464.2 134.043L1444.86 136.116L1445.29 140.093L1464.62 138.02L1464.2 134.043ZM1447.06 137.891L1436.97 43.7701L1432.99 44.1965L1443.08 138.318L1447.06 137.891ZM1435.2 45.9719L1454.53 43.8987L1454.11 39.9214L1434.77 41.9947L1435.2 45.9719ZM1452.33 42.1233L1454.33 60.7763L1458.31 60.3499L1456.31 41.6968L1452.33 42.1233ZM1458.23 61.1505C1462.24 48.1087 1471.56 39.9958 1485.63 38.4875L1485.2 34.5103C1469.49 36.1945 1458.87 45.4527 1454.41 59.9758L1458.23 61.1505Z" fill="white" mask="url(#path-1-outside-1_38_195)"/>
</g>
</svg>
