<svg width="144" height="46" viewBox="0 0 144 46" fill="none" xmlns="http://www.w3.org/2000/svg">
<path d="M30.8395 9.08669C28.3312 7.63851 25.4858 6.8761 22.5895 6.87611C19.6931 6.87611 16.8478 7.63851 14.3395 9.08669C11.8311 10.5349 9.74823 12.6178 8.30005 15.1261C6.85187 17.6344 6.08947 20.4798 6.08947 23.3761C6.08947 26.2725 6.85187 29.1178 8.30005 31.6261C9.74823 34.1344 11.8312 36.2174 14.3395 37.6655C16.8478 39.1137 19.6931 39.8761 22.5895 39.8761C25.4858 39.8761 28.3312 39.1137 30.8395 37.6655L28.1786 33.0567C26.4793 34.0378 24.5517 34.5543 22.5895 34.5543C20.6273 34.5543 18.6997 34.0378 17.0004 33.0567C15.3011 32.0756 13.8899 30.6645 12.9088 28.9652C11.9278 27.2659 11.4112 25.3383 11.4112 23.3761C11.4112 21.4139 11.9278 19.4863 12.9088 17.787C13.8899 16.0877 15.3011 14.6766 17.0004 13.6955C18.6997 12.7144 20.6273 12.1979 22.5895 12.1979C24.5517 12.1979 26.4793 12.7144 28.1786 13.6955L30.8395 9.08669Z" fill="url(#paint0_linear_23_85)"/>
<path d="M23.13 32.1009C18.186 32.1009 14.49 28.4049 14.49 23.4369C14.49 18.4689 18.186 14.7729 23.13 14.7729C26.922 14.7729 29.9461 17.0049 31.098 20.3889H28.962C27.9541 18.1329 25.794 16.6689 23.106 16.6689C19.314 16.6689 16.506 19.5729 16.506 23.4369C16.506 27.3009 19.314 30.2049 23.106 30.2049C25.794 30.2049 27.9541 28.7409 28.962 26.4849H31.098C29.9461 29.8689 26.922 32.1009 23.13 32.1009ZM40.6236 18.3729C40.9356 18.3729 41.2476 18.3969 41.4396 18.4209V20.4609C41.2236 20.4369 40.9356 20.4129 40.5996 20.4129C37.8396 20.4129 35.9196 22.2129 35.9196 25.5969V31.8369H33.9276V18.6369H35.9196V21.5889C36.7116 19.6209 38.2956 18.3729 40.6236 18.3729ZM53.4417 18.6369H55.5777L46.6737 37.8369H44.5377L48.0417 30.2289L42.6897 18.6369H44.8257L49.0977 28.0929L53.4417 18.6369ZM65.1745 18.3729C68.7505 18.3729 71.3425 21.2289 71.3425 25.2369C71.3425 29.2209 68.7505 32.1009 65.1505 32.1009C62.8705 32.1009 61.0945 30.9489 60.0865 29.1729V37.8369H58.0945V18.6369H60.0865V21.3489C61.0945 19.5489 62.8945 18.3729 65.1745 18.3729ZM64.7905 30.2049C67.4545 30.2049 69.3265 28.1409 69.3265 25.2369C69.3265 22.3569 67.4545 20.2689 64.7905 20.2689C62.1025 20.2689 60.0625 22.3329 60.0625 25.2369C60.0625 28.1409 62.1025 30.2049 64.7905 30.2049ZM83.6933 29.6049L84.0533 31.2609C83.3333 31.6449 81.9173 32.1009 80.4773 32.1009C77.6453 32.1009 75.7493 30.2769 75.7493 26.7969V20.5089H73.2053V18.6369H75.7493V15.4689L77.7413 15.0369V18.6369H83.6693V20.5089H77.7413V26.7009C77.7413 28.9569 78.7493 30.2529 80.8133 30.2529C81.7493 30.2529 82.7093 29.9649 83.6933 29.6049ZM92.4104 18.3729C96.1784 18.3729 99.2264 21.2769 99.2264 25.2369C99.2264 29.1969 96.2264 32.1009 92.4104 32.1009C88.6184 32.1009 85.6184 29.1729 85.6184 25.2369C85.6184 21.2769 88.6664 18.3729 92.4104 18.3729ZM92.4104 20.2689C89.7704 20.2689 87.6344 22.3089 87.6344 25.2369C87.6344 28.1409 89.7464 30.2049 92.4104 30.2049C95.0984 30.2049 97.2104 28.1409 97.2104 25.2369C97.2104 22.3329 95.0744 20.2689 92.4104 20.2689ZM112.688 22.7889C114.488 23.3889 115.352 25.0209 115.352 26.9889C115.352 30.0609 113.144 31.8369 109.688 31.8369H102.272V15.0369H109.64C112.736 15.0369 114.776 16.5249 114.776 19.4049C114.776 21.0849 114.056 22.0929 112.688 22.7889ZM111.32 19.9809C111.32 18.7569 110.624 18.3009 109.184 18.3009H105.704V21.6849H109.28C110.696 21.6849 111.32 21.1089 111.32 19.9809ZM109.616 28.5729C111.368 28.5729 111.872 27.8289 111.872 26.7009C111.872 25.4769 111.368 24.8289 109.592 24.8289H105.704V28.5729H109.616ZM125.197 18.3489C125.509 18.3489 125.749 18.3729 125.965 18.3969V21.9249C125.701 21.9009 125.509 21.8769 125.125 21.8769C122.941 21.8769 121.069 22.8369 121.069 25.9569V31.8369H117.637V18.6369H121.069V20.9409C121.885 19.2129 123.325 18.3489 125.197 18.3489ZM134.15 18.3489C137.966 18.3489 141.038 21.2529 141.038 25.2369C141.038 29.2209 138.014 32.1249 134.15 32.1249C130.31 32.1249 127.286 29.1969 127.286 25.2369C127.286 21.2529 130.358 18.3489 134.15 18.3489ZM134.15 21.6129C132.23 21.6129 130.742 23.0769 130.742 25.2369C130.742 27.4209 132.23 28.8609 134.15 28.8609C136.07 28.8609 137.558 27.4209 137.558 25.2369C137.558 23.0769 136.07 21.6129 134.15 21.6129Z" fill="white"/>
<defs>
<linearGradient id="paint0_linear_23_85" x1="14.6459" y1="37.1348" x2="31.0044" y2="8.80088" gradientUnits="userSpaceOnUse">
<stop stop-color="#FF6417"/>
<stop offset="1" stop-color="#7000FF" stop-opacity="0.94"/>
</linearGradient>
</defs>
</svg>
