<svg width="110" height="41" viewBox="0 0 110 41" fill="none" xmlns="http://www.w3.org/2000/svg">
<rect x="0.25" y="0.25" width="109.5" height="40.5" rx="7.75" fill="#181820" stroke="#2E2E3E" stroke-width="0.5"/>
<path fill-rule="evenodd" clip-rule="evenodd" d="M30 28.4917C28.0935 30.0558 25.6204 31 22.918 31C16.8882 31 12 26.299 12 20.5C12 14.701 16.8882 10 22.918 10C25.6204 10 28.0935 10.9442 30 12.5083C31.9065 10.9442 34.3796 10 37.082 10C43.1118 10 48 14.701 48 20.5C48 26.299 43.1118 31 37.082 31C34.3796 31 31.9065 30.0558 30 28.4917Z" fill="#ED0006"/>
<path fill-rule="evenodd" clip-rule="evenodd" d="M30 28.4917C32.3475 26.5658 33.8361 23.7001 33.8361 20.5C33.8361 17.2999 32.3475 14.4342 30 12.5083C31.9065 10.9442 34.3796 10 37.082 10C43.1118 10 48 14.701 48 20.5C48 26.299 43.1118 31 37.082 31C34.3796 31 31.9065 30.0558 30 28.4917Z" fill="#F9A000"/>
<path fill-rule="evenodd" clip-rule="evenodd" d="M30 28.4916C32.3475 26.5657 33.836 23.7 33.836 20.5C33.836 17.2999 32.3475 14.4342 30 12.5083C27.6525 14.4342 26.164 17.2999 26.164 20.5C26.164 23.7 27.6525 26.5657 30 28.4916Z" fill="#FF5E00"/>
<path fill-rule="evenodd" clip-rule="evenodd" d="M67.2504 26.8909H63.7021L61.0414 16.0301C60.9151 15.5306 60.6469 15.0889 60.2525 14.8807C59.2681 14.3576 58.1833 13.9413 57 13.7313V13.3131H62.716C63.5049 13.3131 64.0966 13.9413 64.1952 14.6707L65.5758 22.505L69.1223 13.3131H72.572L67.2504 26.8909ZM74.5442 26.8909H71.1932L73.9526 13.3131H77.3036L74.5442 26.8909ZM81.6391 17.0746C81.7377 16.3433 82.3294 15.9252 83.0197 15.9252C84.1044 15.8202 85.286 16.0302 86.2721 16.5515L86.8638 13.6281C85.8777 13.21 84.7929 13 83.8086 13C80.5561 13 78.1894 14.8807 78.1894 17.4909C78.1894 19.4767 79.8658 20.5193 81.0492 21.1474C82.3294 21.7737 82.8224 22.1919 82.7238 22.8182C82.7238 23.7576 81.7377 24.1758 80.7533 24.1758C79.57 24.1758 78.3866 23.8626 77.3036 23.3395L76.712 26.2647C77.8953 26.786 79.1755 26.996 80.3589 26.996C84.0058 27.0991 86.2721 25.2202 86.2721 22.4C86.2721 18.8485 81.6391 18.6404 81.6391 17.0746ZM98 26.8909L95.3392 13.3131H92.4812C91.8895 13.3131 91.2979 13.7313 91.1006 14.3576L86.1735 26.8909H89.6232L90.3117 24.907H94.5503L94.9448 26.8909H98ZM92.9743 16.9696L93.9586 22.0868H91.1992L92.9743 16.9696Z" fill="white"/>
</svg>
