<svg width="38" height="24" viewBox="0 0 38 24" fill="none" xmlns="http://www.w3.org/2000/svg">
<path d="M4.01251 3.625H33.9875L19 20.7531L4.01251 3.625ZM1.65938 5.68438L16.6469 22.8094C16.9402 23.145 17.3019 23.4141 17.7078 23.5984C18.1137 23.7827 18.5543 23.8781 19 23.8781C19.4458 23.8781 19.8864 23.7827 20.2922 23.5984C20.6981 23.4141 21.0598 23.145 21.3531 22.8094L36.3406 5.68438C38.1094 3.6625 36.6719 0.500001 33.9875 0.500001H4.01251C3.41174 0.499486 2.82357 0.67215 2.31841 0.997315C1.81325 1.32248 1.41253 1.78637 1.16423 2.33342C0.915929 2.88047 0.830578 3.48749 0.918396 4.08181C1.00621 4.67612 1.26348 5.23252 1.65938 5.68438Z" fill="white"/>
</svg>
