<svg width="37" height="37" viewBox="0 0 37 37" fill="none" xmlns="http://www.w3.org/2000/svg">
<rect width="37" height="37" rx="4" fill="#F3BA2F"/>
<path d="M14.4197 16.8193L18.4962 12.7412L22.5765 16.8193L24.9503 14.4468L18.4962 8L12.0458 14.4353L14.4197 16.8078V16.8193ZM8 18.4789L10.37 16.1102L12.7438 18.4789L10.37 20.8514L8 18.4789ZM14.4197 20.1845L18.4962 24.2626L22.5765 20.1845L24.9503 22.5532L18.4962 29L12.0458 22.5532L14.4235 20.1845H14.4197ZM24.2562 18.5134L26.6262 16.1409L29 18.5134L26.6262 20.8821L24.2562 18.5134Z" fill="white"/>
<path d="M20.9044 18.4906L18.4961 16.0835L16.7167 17.862L16.5134 18.0689L16.0916 18.4906L18.4961 20.8976L20.9044 18.4906Z" fill="white"/>
</svg>
