								<svg
									xmlns="http://www.w3.org/2000/svg"
									width="31"
									height="31"
									viewBox="0 0 31 31"
									fill="none"
								>
									<g clip-path="url(#clip0_63_805)">
										<path
											d="M9.04167 31H6.45833C2.89721 31 0 28.1028 0 24.5417V21.9583C0 21.244 0.577375 20.6667 1.29167 20.6667C2.00596 20.6667 2.58333 21.244 2.58333 21.9583V24.5417C2.58333 26.6781 4.32192 28.4167 6.45833 28.4167H9.04167C9.75596 28.4167 10.3333 28.994 10.3333 29.7083C10.3333 30.4226 9.75596 31 9.04167 31ZM31 24.5417V21.9583C31 21.244 30.4226 20.6667 29.7083 20.6667C28.994 20.6667 28.4167 21.244 28.4167 21.9583V24.5417C28.4167 26.6781 26.6781 28.4167 24.5417 28.4167H21.9583C21.244 28.4167 20.6667 28.994 20.6667 29.7083C20.6667 30.4226 21.244 31 21.9583 31H24.5417C28.1028 31 31 28.1028 31 24.5417ZM31 9.04167V6.45833C31 2.89721 28.1028 0 24.5417 0H21.9583C21.244 0 20.6667 0.577375 20.6667 1.29167C20.6667 2.00596 21.244 2.58333 21.9583 2.58333H24.5417C26.6781 2.58333 28.4167 4.32192 28.4167 6.45833V9.04167C28.4167 9.75596 28.994 10.3333 29.7083 10.3333C30.4226 10.3333 31 9.75596 31 9.04167ZM2.58333 9.04167V6.45833C2.58333 4.32192 4.32192 2.58333 6.45833 2.58333H9.04167C9.75596 2.58333 10.3333 2.00596 10.3333 1.29167C10.3333 0.577375 9.75596 0 9.04167 0H6.45833C2.89721 0 0 2.89721 0 6.45833V9.04167C0 9.75596 0.577375 10.3333 1.29167 10.3333C2.00596 10.3333 2.58333 9.75596 2.58333 9.04167ZM23.25 12.9167V18.0833C23.25 20.2197 21.5114 21.9583 19.375 21.9583H11.625C9.48858 21.9583 7.75 20.2197 7.75 18.0833V12.9167C7.75 10.7996 9.45629 9.07525 11.5643 9.04296L12.4633 7.64408C12.9386 6.90267 13.7511 6.45833 14.6359 6.45833H16.3641C17.2489 6.45833 18.0601 6.90267 18.538 7.64537L19.4357 9.04296C21.545 9.07525 23.25 10.7996 23.25 12.9167ZM18.0833 15.5C18.0833 14.0727 16.9273 12.9167 15.5 12.9167C14.0727 12.9167 12.9167 14.0727 12.9167 15.5C12.9167 16.9273 14.0727 18.0833 15.5 18.0833C16.9273 18.0833 18.0833 16.9273 18.0833 15.5Z"
											fill="url(#paint0_linear_63_805)"
										/>
									</g>
									<defs>
										<linearGradient
											id="paint0_linear_63_805"
											x1="0.575714"
											y1="15.5"
											x2="31.31"
											y2="15.5"
											gradientUnits="userSpaceOnUse"
										>
											<stop stop-color="#FF6417" />
											<stop
												offset="1"
												stop-color="#7000FF"
												stop-opacity="0.94"
											/>
										</linearGradient>
										<clipPath id="clip0_63_805">
											<rect width="31" height="31" fill="white" />
										</clipPath>
									</defs>
								</svg>