<svg width="104" height="114" viewBox="0 0 104 114" fill="none" xmlns="http://www.w3.org/2000/svg">
<path fill-rule="evenodd" clip-rule="evenodd" d="M19.6227 14.4647L21.9602 14.8379L24.3671 15.5172L72.3489 32.9607L74.4487 33.8175L76.4645 34.9051L78.3809 36.1997L80.1825 37.6781L81.8534 39.3179L83.3775 41.0972L84.738 42.9945L85.9178 44.9886L86.899 47.0585L87.663 49.1835L88.1903 51.3427L88.4609 53.5149L89.3154 100.893L89.3155 100.894L89.0276 103.196L88.4609 105.325L87.6297 107.262L86.5489 108.989L85.2337 110.484L83.6998 111.727L81.9632 112.695L80.0416 113.365L77.9524 113.716L75.7156 113.723L73.3506 113.365L20.3365 102.06L17.7462 101.462L15.0214 100.294L12.4167 98.6025L10.0853 96.8438L7.95604 94.8359L6.05696 92.6128L4.41506 90.2093L3.05629 87.6609L2.00544 85.0036L1.28593 82.2734L0.919434 79.5056L0.926558 76.7364L5.13675 25.7224L5.47467 23.5017L6.13196 21.4981L7.08051 19.7226L8.29248 18.1855L9.74059 16.8963L11.3983 15.8638L13.2397 15.0963L15.24 14.602L17.3753 14.3888L19.6227 14.4647ZM89.3154 100.893L88.4609 53.5149L89.3099 98.4375L89.3154 100.893Z" fill="url(#paint0_linear_252_1594)"/>
<path fill-rule="evenodd" clip-rule="evenodd" d="M15.7072 10.0973L15.3692 12.318L11.3741 67.3449L11.367 70.1141L11.7334 72.8817L12.453 75.6121L13.5038 78.2694L14.8626 80.8178L16.5045 83.2213L18.4036 85.4444L20.5328 87.4523L22.8643 89.211L25.3693 90.6875L28.0187 91.85L30.7828 92.6685L87.479 105.51L89.8438 105.868L92.0808 105.861L94.1697 105.51L96.0913 104.84L94.178 105.974L92.4482 106.938L90.6202 108.023L92.4473 106.939L92.4482 106.938L94.178 105.974L96.0913 104.84L97.828 103.872L94.1798 105.973L94.1789 105.974L94.178 105.974L92.4482 106.938L90.6202 108.023L87.1488 110.022L83.7614 111.972L82.0495 112.928L80.1638 113.599L78.1224 113.963L75.9444 114L73.65 113.687L18.9421 102.125L16.2884 101.379L13.7515 100.302L11.359 98.922L9.1383 97.2689L7.1163 95.374L5.31916 93.2693L3.77225 90.9877L2.49992 88.5625L1.52542 86.0276L0.870771 83.4167L0.556641 80.7639L0.60227 78.1025L5.24169 24.9158L5.60082 22.756L6.26624 20.7992L9.64409 15.9884L10.8449 14.4658L13.3421 11.3168L15.901 8.08995L18.5225 4.78428L17.313 6.31821L16.3644 8.09366L15.7072 10.0973Z" fill="url(#paint1_linear_252_1594)"/>
<g filter="url(#filter0_b_252_1594)">
<path fill-rule="evenodd" clip-rule="evenodd" d="M29.8554 1.06021L32.1929 1.43346L34.5998 2.1127L84.1607 19.1144L86.2606 19.9711L88.2764 21.0587L90.1928 22.3533L91.9944 23.8318L93.6653 25.4716L95.1893 27.2508L96.5499 29.1481L97.7297 31.1422L98.7108 33.2122L99.4748 35.3372L100.002 37.4963L100.273 39.6685L103.444 93.0379L103.444 93.0392L103.156 95.3408L102.589 97.4698L101.758 99.4075L100.677 101.134L99.3623 102.63L97.8284 103.872L96.0917 104.84L94.1702 105.51L92.081 105.861L89.8441 105.868L87.4792 105.51L30.7842 92.6687L28.194 92.0701L25.4692 90.9023L22.8645 89.2109L20.533 87.4523L18.4038 85.4443L16.5047 83.2212L14.8628 80.8177L13.504 78.2694L12.4532 75.612L11.7337 72.8819L11.3672 70.114L11.3743 67.3448L15.3694 12.318L15.7074 10.0973L16.3646 8.0936L17.3132 6.31814L18.5252 4.78107L19.9733 3.49186L21.6309 2.45933L23.4724 1.69187L25.4727 1.19753L27.608 0.984314L29.8554 1.06021ZM103.444 93.0379L100.273 39.6685L103.438 90.5827L103.444 93.0379Z" fill="url(#paint2_linear_252_1594)" fill-opacity="0.6"/>
<path d="M102.942 93.0229L102.664 95.245L102.116 97.3061L101.314 99.1749L100.275 100.835L99.0147 102.268L97.5472 103.456L95.8861 104.382L94.0456 105.024L92.0385 105.361L89.881 105.368L87.572 105.018L30.8968 92.1816L30.8947 92.1811L28.35 91.5929L25.7055 90.4596L23.1515 88.8012L20.8561 87.0696L18.7665 85.0991L16.9024 82.9169L15.2911 80.5583L13.9586 78.0591L12.9291 75.4558L12.2252 72.785L11.8673 70.0817L11.8743 67.3636L15.8667 12.3738L16.1954 10.2136L16.8262 8.29081L17.7333 6.59288L18.8905 5.12524L20.2739 3.89369L21.8608 2.90522L23.6294 2.1681L25.5579 1.69151L27.6245 1.48516L29.8073 1.55887L32.0852 1.9226L34.4506 2.59014L83.985 19.5827L86.0468 20.4239L88.0171 21.487L89.8936 22.7546L91.66 24.2042L93.2996 25.8132L94.7956 27.5597L96.1307 29.4216L97.2877 31.3771L98.2486 33.4043L98.9954 35.4815L99.5096 37.5868L99.7746 39.7143L102.942 93.0229Z" stroke="url(#paint3_linear_252_1594)"/>
</g>
<g filter="url(#filter1_d_252_1594)">
<path fill-rule="evenodd" clip-rule="evenodd" d="M35.1139 44.6903L37.3413 42.3055L34.7012 45.1329L35.1139 44.6903ZM88.852 46.6441L58.8761 68.8529L58.8735 68.8548L58.3457 69.1812L57.7757 69.4146L57.1716 69.5566L56.5418 69.6089L55.8948 69.573L55.2393 69.4508L54.5838 69.244L53.9372 68.9547L53.3083 68.5849L52.374 69.789L51.4398 70.993L52.0793 71.2764L52.7281 71.478L53.3774 71.596L54.0186 71.6285L54.6432 71.574L55.2428 71.4307L55.8092 71.1971L56.3341 70.8718L86.2151 48.7183L86.2166 48.7172L88.852 46.6441ZM36.9267 42.7501L34.7012 45.1329L34.3712 45.6339L34.1247 46.1851L33.9628 46.7781L33.8862 47.4045L33.8959 48.0558L33.9926 48.7233L34.177 49.3982L34.4496 50.0716L34.8109 50.7346L35.2612 51.3782L49.1487 69.0839L49.6638 69.673L50.2232 70.1891L50.8181 70.6299L51.4398 70.993L52.374 69.789L53.3083 68.5849L52.7059 68.1368L52.139 67.6127L51.6164 67.015L37.5196 49.0594L37.0622 48.407L36.6946 47.7355L36.4165 47.054L36.2274 46.3715L36.1268 45.697L36.1142 45.0393L36.1887 44.4071L36.3495 43.8092L36.5958 43.2541L36.9267 42.7501ZM36.9267 42.7501L37.3413 42.3055L34.7012 45.1329L36.9267 42.7501Z" fill="#94444F"/>
<path fill-rule="evenodd" clip-rule="evenodd" d="M88.6075 40.4373L89.0058 41.0076L89.3367 41.5919L89.6 42.1832L89.7952 42.7746L89.9221 43.3589L89.9803 43.9292L89.9691 44.478L89.8881 44.9983L89.7365 45.4825L89.5138 45.9233L89.2192 46.313L88.8521 46.644L58.8755 68.8533L58.8736 68.8548L58.3458 69.1811L57.7759 69.4145L57.1717 69.5565L56.5419 69.6088L55.8949 69.5729L55.2393 69.4507L54.5839 69.244L53.9373 68.9547L53.3083 68.5848L52.706 68.1367L55.4778 57.0164L82.5223 38.4138L82.9569 38.1721L83.4285 38.0141L83.9298 37.9368L84.4536 37.9375L84.9927 38.0134L85.5401 38.1619L86.0886 38.3803L86.6315 38.6662L87.1616 39.0171L87.6722 39.4307L88.1565 39.9049L88.6075 40.4373ZM36.1888 44.4068L36.3496 43.8092L36.5958 43.2543L38.3995 41.6358L40.9426 41.3757L41.6099 41.5236L42.2726 41.751L42.9224 42.0554L43.551 42.4343L44.1501 42.8853L44.7114 43.4061L45.2267 43.9947L55.4778 57.0164L52.706 68.1367L52.139 67.6126L51.6165 67.0149L37.5197 49.0593L37.0623 48.4069L36.6947 47.7354L36.4165 47.0539L36.2275 46.3714L36.1269 45.6969L36.1143 45.0392L36.1888 44.4068ZM40.9426 41.3757L40.2794 41.3102L39.6287 41.3297L38.9991 41.4373L38.3995 41.6358L40.9426 41.3757ZM38.3995 41.6358L37.8387 41.9283L37.3415 42.3053L36.9268 42.75L36.5958 43.2543L38.3995 41.6358Z" fill="url(#paint4_linear_252_1594)"/>
</g>
<defs>
<filter id="filter0_b_252_1594" x="-1.63281" y="-12.0157" width="118.077" height="130.884" filterUnits="userSpaceOnUse" color-interpolation-filters="sRGB">
<feFlood flood-opacity="0" result="BackgroundImageFix"/>
<feGaussianBlur in="BackgroundImageFix" stdDeviation="6.5"/>
<feComposite in2="SourceAlpha" operator="in" result="effect1_backgroundBlur_252_1594"/>
<feBlend mode="normal" in="SourceGraphic" in2="effect1_backgroundBlur_252_1594" result="shape"/>
</filter>
<filter id="filter1_d_252_1594" x="17.1809" y="33.2964" width="82.0803" height="59.6778" filterUnits="userSpaceOnUse" color-interpolation-filters="sRGB">
<feFlood flood-opacity="0" result="BackgroundImageFix"/>
<feColorMatrix in="SourceAlpha" type="matrix" values="0 0 0 0 0 0 0 0 0 0 0 0 0 0 0 0 0 0 127 0" result="hardAlpha"/>
<feOffset dx="-3.71229" dy="8.35266"/>
<feGaussianBlur stdDeviation="6.49651"/>
<feComposite in2="hardAlpha" operator="out"/>
<feColorMatrix type="matrix" values="0 0 0 0 0.103333 0 0 0 0 0.4104 0 0 0 0 0.43 0 0 0 0.25 0"/>
<feBlend mode="normal" in2="BackgroundImageFix" result="effect1_dropShadow_252_1594"/>
<feBlend mode="normal" in="SourceGraphic" in2="effect1_dropShadow_252_1594" result="shape"/>
</filter>
<linearGradient id="paint0_linear_252_1594" x1="2.56107" y1="64.0558" x2="90.1995" y2="64.0558" gradientUnits="userSpaceOnUse">
<stop stop-color="#FF6417"/>
<stop offset="1" stop-color="#7000FF" stop-opacity="0.94"/>
</linearGradient>
<linearGradient id="paint1_linear_252_1594" x1="2.36311" y1="59.392" x2="98.8007" y2="59.392" gradientUnits="userSpaceOnUse">
<stop stop-color="#FF6417"/>
<stop offset="1" stop-color="#7000FF" stop-opacity="0.94"/>
</linearGradient>
<linearGradient id="paint2_linear_252_1594" x1="5.5" y1="106" x2="60.117" y2="82.1328" gradientUnits="userSpaceOnUse">
<stop stop-color="#182FFF"/>
<stop offset="1" stop-color="#FF6417"/>
</linearGradient>
<linearGradient id="paint3_linear_252_1594" x1="11.2014" y1="95.7614" x2="100.648" y2="20.7225" gradientUnits="userSpaceOnUse">
<stop offset="0.180663" stop-color="white" stop-opacity="0.35"/>
<stop offset="0.533255" stop-color="white" stop-opacity="0"/>
</linearGradient>
<linearGradient id="paint4_linear_252_1594" x1="58.7117" y1="79.3277" x2="87.7229" y2="27.6822" gradientUnits="userSpaceOnUse">
<stop stop-color="white"/>
<stop offset="0.644664" stop-color="white" stop-opacity="0.57"/>
</linearGradient>
</defs>
</svg>
