<svg width="9" height="9" viewBox="0 0 9 9" fill="none" xmlns="http://www.w3.org/2000/svg">
<path d="M8.3151 0.167294C8.16205 0.0821288 7.99371 0.0279692 7.81971 0.00791221C7.64572 -0.0121448 7.46947 0.00229416 7.30106 0.0504035C7.13264 0.0985128 6.97536 0.179349 6.83822 0.288289C6.70107 0.397228 6.58674 0.532135 6.50177 0.685294L4.02643 5.13996L2.60977 3.72329C2.48677 3.59595 2.33965 3.49437 2.17697 3.42449C2.0143 3.35461 1.83934 3.31783 1.6623 3.31629C1.48526 3.31475 1.30969 3.34849 1.14583 3.41553C0.981967 3.48257 0.833097 3.58158 0.707907 3.70677C0.582717 3.83196 0.483713 3.98083 0.416672 4.14469C0.34963 4.30855 0.315895 4.48412 0.317433 4.66116C0.318972 4.8382 0.355753 5.01316 0.425632 5.17583C0.495511 5.33851 0.597087 5.48563 0.724434 5.60863L3.3911 8.27529C3.6431 8.52796 3.9831 8.66663 4.33377 8.66663L4.51843 8.65329C4.7228 8.6247 4.91774 8.54907 5.08791 8.43235C5.25808 8.31562 5.39884 8.16099 5.4991 7.98063L8.83243 1.98063C8.91754 1.82759 8.97166 1.6593 8.99172 1.48535C9.01178 1.3114 8.99738 1.1352 8.94934 0.966812C8.9013 0.798426 8.82056 0.641153 8.71174 0.503971C8.60292 0.366789 8.46814 0.252386 8.3151 0.167294Z" fill="white"/>
</svg>
