									<svg
										xmlns="http://www.w3.org/2000/svg"
										width="25"
										height="25"
										viewBox="0 0 25 25"
										fill="none"
									>
										<g clip-path="url(#clip0_63_711)">
											<path
												d="M15.5779 16.9756C15.3054 16.9691 15.0459 16.8575 14.8537 16.6642L12.5 14.3395L10.1752 16.657C9.97562 16.8486 9.70962 16.9556 9.43291 16.9556C9.15619 16.9556 8.89019 16.8486 8.69058 16.657L8.36469 16.3311C8.26462 16.2321 8.18518 16.1142 8.13096 15.9843C8.07674 15.8544 8.04883 15.715 8.04883 15.5743C8.04883 15.4335 8.07674 15.2941 8.13096 15.1642C8.18518 15.0343 8.26462 14.9165 8.36469 14.8175L10.6894 12.4927L8.36469 10.168C8.26462 10.069 8.18518 9.95111 8.13096 9.82121C8.07674 9.6913 8.04883 9.55193 8.04883 9.41117C8.04883 9.2704 8.07674 9.13104 8.13096 9.00113C8.18518 8.87122 8.26462 8.75336 8.36469 8.65436L8.69058 8.32846C8.8915 8.12812 9.16366 8.01562 9.44739 8.01562C9.73112 8.01562 10.0033 8.12812 10.2042 8.32846L12.5289 10.6532L14.8537 8.32846C15.0546 8.12812 15.3268 8.01562 15.6105 8.01562C15.8942 8.01562 16.1664 8.12812 16.3673 8.32846L16.657 8.69057C16.757 8.78957 16.8365 8.90744 16.8907 9.03734C16.9449 9.16725 16.9728 9.30661 16.9728 9.44738C16.9728 9.58814 16.9449 9.72751 16.8907 9.85742C16.8365 9.98732 16.757 10.1052 16.657 10.2042L14.3395 12.5289L16.657 14.8247C16.757 14.9237 16.8365 15.0416 16.8907 15.1715C16.9449 15.3014 16.9728 15.4407 16.9728 15.5815C16.9728 15.7223 16.9449 15.8616 16.8907 15.9915C16.8365 16.1214 16.757 16.2393 16.657 16.3383L16.3383 16.6642C16.2385 16.7639 16.1199 16.8428 15.9894 16.8962C15.8588 16.9497 15.719 16.9767 15.5779 16.9756Z"
												fill="#676789"
											/>
											<path
												d="M12.5 25C10.0277 25 7.61099 24.2669 5.55538 22.8934C3.49976 21.5199 1.89761 19.5676 0.951511 17.2835C0.00541604 14.9995 -0.242126 12.4861 0.24019 10.0614C0.722505 7.63661 1.91301 5.40933 3.66117 3.66117C5.40933 1.91301 7.63661 0.722505 10.0614 0.24019C12.4861 -0.242126 14.9995 0.00541604 17.2835 0.951511C19.5676 1.89761 21.5199 3.49976 22.8934 5.55538C24.2669 7.61099 25 10.0277 25 12.5C24.9962 15.814 23.678 18.9912 21.3346 21.3346C18.9912 23.678 15.814 24.9962 12.5 25ZM12.5 2.49856C10.5219 2.49856 8.58823 3.08513 6.9435 4.1841C5.29877 5.28308 4.01686 6.84509 3.25987 8.67262C2.50289 10.5001 2.30482 12.5111 2.69073 14.4512C3.07664 16.3913 4.02919 18.1734 5.42791 19.5721C6.82664 20.9708 8.60873 21.9234 10.5488 22.3093C12.4889 22.6952 14.4999 22.4971 16.3274 21.7401C18.1549 20.9832 19.7169 19.7012 20.8159 18.0565C21.9149 16.4118 22.5015 14.4781 22.5015 12.5C22.4976 9.84863 21.4427 7.30695 19.5679 5.43214C17.6931 3.55734 15.1514 2.50239 12.5 2.49856Z"
												fill="#676789"
											/>
										</g>
										<defs>
											<clipPath id="clip0_63_711">
												<rect width="25" height="25" fill="white" />
											</clipPath>
										</defs>
									</svg>