<svg width="526" height="567" viewBox="0 0 526 567" fill="none" xmlns="http://www.w3.org/2000/svg">
<g filter="url(#filter0_f_252_1590)">
<path d="M360.519 226C360.519 271.011 324.03 307.5 279.019 307.5C234.008 307.5 197.519 271.011 197.519 226C197.519 180.989 139.008 100 184.019 100C229.03 100 360.519 180.989 360.519 226Z" fill="url(#paint0_radial_252_1590)"/>
</g>
<g opacity="0.7" filter="url(#filter1_f_252_1590)">
<path d="M352 193.991C352 245.077 273.293 316 222.311 316C171.329 316 130 274.586 130 223.5C130 172.414 171.329 131 222.311 131C273.293 131 352 142.904 352 193.991Z" fill="url(#paint1_radial_252_1590)"/>
</g>
<g opacity="0.5" filter="url(#filter2_f_252_1590)">
<path d="M466 284.745C466 377.805 322.059 507 228.821 507C135.584 507 60 431.56 60 338.5C60 245.44 135.584 170 228.821 170C322.059 170 466 191.685 466 284.745Z" fill="url(#paint2_linear_252_1590)" fill-opacity="0.3"/>
</g>
<defs>
<filter id="filter0_f_252_1590" x="67" y="0" width="393.519" height="407.5" filterUnits="userSpaceOnUse" color-interpolation-filters="sRGB">
<feFlood flood-opacity="0" result="BackgroundImageFix"/>
<feBlend mode="normal" in="SourceGraphic" in2="BackgroundImageFix" result="shape"/>
<feGaussianBlur stdDeviation="50" result="effect1_foregroundBlur_252_1590"/>
</filter>
<filter id="filter1_f_252_1590" x="70" y="71" width="342" height="305" filterUnits="userSpaceOnUse" color-interpolation-filters="sRGB">
<feFlood flood-opacity="0" result="BackgroundImageFix"/>
<feBlend mode="normal" in="SourceGraphic" in2="BackgroundImageFix" result="shape"/>
<feGaussianBlur stdDeviation="30" result="effect1_foregroundBlur_252_1590"/>
</filter>
<filter id="filter2_f_252_1590" x="0" y="110" width="526" height="457" filterUnits="userSpaceOnUse" color-interpolation-filters="sRGB">
<feFlood flood-opacity="0" result="BackgroundImageFix"/>
<feBlend mode="normal" in="SourceGraphic" in2="BackgroundImageFix" result="shape"/>
<feGaussianBlur stdDeviation="30" result="effect1_foregroundBlur_252_1590"/>
</filter>
<radialGradient id="paint0_radial_252_1590" cx="0" cy="0" r="1" gradientUnits="userSpaceOnUse" gradientTransform="translate(176.519 168.639) rotate(59.5576) scale(188.485 188.485)">
<stop stop-color="#E37B7B"/>
<stop offset="0.43836" stop-color="#843DDD" stop-opacity="0.653125"/>
<stop offset="1" stop-color="#2A1950" stop-opacity="0"/>
</radialGradient>
<radialGradient id="paint1_radial_252_1590" cx="0" cy="0" r="1" gradientUnits="userSpaceOnUse" gradientTransform="translate(138.5 145) rotate(63.8894) scale(190.435 190.155)">
<stop stop-color="#E346E6" stop-opacity="0.43"/>
<stop offset="0.466006" stop-color="#E67646" stop-opacity="0.36"/>
<stop offset="1" stop-color="#193C50" stop-opacity="0"/>
</radialGradient>
<linearGradient id="paint2_linear_252_1590" x1="127" y1="146" x2="228.707" y2="507.032" gradientUnits="userSpaceOnUse">
<stop offset="0.0736163" stop-color="#2D1950" stop-opacity="0"/>
<stop offset="0.520656" stop-color="#C96014" stop-opacity="0.83"/>
</linearGradient>
</defs>
</svg>
