<svg width="24" height="24" viewBox="0 0 24 24" fill="none" xmlns="http://www.w3.org/2000/svg">
<g clip-path="url(#clip0_23_163)">
<path d="M21.3371 2.65972C20.9943 2.31199 20.4359 2.31689 20.0882 2.65972L16.9537 5.7942C13.0699 4.03105 8.92651 4.46205 4.97413 7.04309C2.03066 8.96296 0.243028 11.3775 0.169563 11.4803C-0.0655226 11.8036 -0.0557274 12.2444 0.194051 12.5578C1.86904 14.6148 3.62239 16.2163 5.41492 17.333L2.65756 20.0903C2.31472 20.4332 2.31472 20.9915 2.65756 21.3392C2.82897 21.5107 3.05426 21.5988 3.27955 21.5988C3.50484 21.5988 3.73013 21.5107 3.90155 21.3392L21.3371 3.90861C21.6799 3.56578 21.6799 3.00745 21.3371 2.65972ZM9.81788 12.93C9.69054 12.6411 9.62687 12.3276 9.62687 11.9995C9.62687 11.3677 9.87175 10.7702 10.3223 10.3196C11.0276 9.61434 12.0708 9.44782 12.9328 9.81514L9.81788 12.93ZM14.2355 8.51727C12.634 7.48877 10.4742 7.67488 9.07834 9.0707C8.29472 9.85432 7.86863 10.8926 7.86863 11.9946C7.86863 12.7978 8.09881 13.5667 8.52491 14.2279L6.70789 16.0449C5.11616 15.1242 3.54892 13.7626 2.02576 11.9848C2.67715 11.2208 4.05338 9.74658 5.93896 8.51727C9.20078 6.39171 12.4479 5.93133 15.6118 7.14104L14.2355 8.51727Z" fill="#6B6B91"/>
<path d="M23.8054 11.4411C22.5957 9.95223 21.3419 8.69844 20.0685 7.70422C19.6816 7.40547 19.1282 7.47404 18.8246 7.85605C18.5258 8.23806 18.5944 8.79149 18.9764 9.09515C19.9853 9.88366 20.9942 10.8632 21.9737 12.0092C21.3958 12.6851 20.2693 13.8997 18.7413 15.0115C15.7978 17.1517 12.825 17.9255 9.91088 17.3084C9.43582 17.2056 8.96564 17.5141 8.86769 17.9892C8.76484 18.4643 9.07339 18.9345 9.54846 19.0324C10.3076 19.194 11.0716 19.2724 11.8405 19.2724C12.9964 19.2724 14.162 19.0912 15.3228 18.7288C16.8459 18.2537 18.3593 17.4701 19.8237 16.4024C22.2921 14.5952 23.7662 12.6018 23.8299 12.5186C24.065 12.1953 24.0552 11.7546 23.8054 11.4411Z" fill="#6B6B91"/>
</g>
<defs>
<clipPath id="clip0_23_163">
<rect width="24" height="24" fill="white" transform="translate(-0.000244141 -0.000244141)"/>
</clipPath>
</defs>
</svg>
