<svg width="54" height="54" viewBox="0 0 54 54" fill="none" xmlns="http://www.w3.org/2000/svg">
<path d="M39.5676 21.6673C40.1923 21.0089 40.1331 19.9974 39.4354 19.408C38.7377 18.8185 37.6656 18.8744 37.0409 19.5328L29.4238 27.5609C27.8803 29.1875 26.8408 30.2774 25.9521 30.9823C25.1056 31.6537 24.6082 31.8 24.1739 31.8C23.7396 31.8 23.2422 31.6537 22.3957 30.9823C21.507 30.2774 20.4675 29.1875 18.924 27.5609L16.959 25.4898C16.3343 24.8315 15.2623 24.7756 14.5646 25.365C13.8669 25.9545 13.8077 26.9659 14.4324 27.6242L16.4813 29.7838C17.9189 31.2991 19.118 32.5629 20.2137 33.4318C21.3727 34.351 22.6227 35 24.1739 35C25.7251 35 26.9751 34.351 28.134 33.4318C29.2296 32.5629 30.4288 31.2991 31.8662 29.784L39.5676 21.6673Z" fill="url(#paint0_linear_93_287)"/>
<path fill-rule="evenodd" clip-rule="evenodd" d="M27 3C13.7452 3 3 13.7452 3 27C3 40.2549 13.7452 51 27 51C40.2549 51 51 40.2549 51 27C51 13.7452 40.2549 3 27 3ZM6.34884 27C6.34884 15.5947 15.5947 6.34884 27 6.34884C38.4052 6.34884 47.6512 15.5947 47.6512 27C47.6512 38.4052 38.4052 47.6512 27 47.6512C15.5947 47.6512 6.34884 38.4052 6.34884 27Z" fill="url(#paint1_linear_93_287)"/>
<defs>
<linearGradient id="paint0_linear_93_287" x1="14.4829" y1="27.0001" x2="78.0001" y2="-4.99987" gradientUnits="userSpaceOnUse">
<stop stop-color="#FF6417"/>
<stop offset="1" stop-color="#7000FF" stop-opacity="0.94"/>
</linearGradient>
<linearGradient id="paint1_linear_93_287" x1="3.89155" y1="27.0002" x2="82.5002" y2="-11.4997" gradientUnits="userSpaceOnUse">
<stop stop-color="#FF6417"/>
<stop offset="1" stop-color="#7000FF" stop-opacity="0.94"/>
</linearGradient>
</defs>
</svg>
