<svg width="24" height="24" viewBox="0 0 24 24" fill="none" xmlns="http://www.w3.org/2000/svg">
<path d="M6 2C4.93913 2 3.92172 2.42143 3.17157 3.17157C2.42143 3.92172 2 4.93913 2 6V9H4V6C4 5.46957 4.21071 4.96086 4.58579 4.58579C4.96086 4.21071 5.46957 4 6 4H18C18.5304 4 19.0391 4.21071 19.4142 4.58579C19.7893 4.96086 20 5.46957 20 6V18C20 18.5304 19.7893 19.0391 19.4142 19.4142C19.0391 19.7893 18.5304 20 18 20H6C5.46957 20 4.96086 19.7893 4.58579 19.4142C4.21071 19.0391 4 18.5304 4 18V15H2V18C2 19.0609 2.42143 20.0783 3.17157 20.8284C3.92172 21.5786 4.93913 22 6 22H18C19.0609 22 20.0783 21.5786 20.8284 20.8284C21.5786 20.0783 22 19.0609 22 18V6C22 4.93913 21.5786 3.92172 20.8284 3.17157C20.0783 2.42143 19.0609 2 18 2H6Z" fill="url(#paint0_linear_252_1722)"/>
<path d="M3 11C2.73478 11 2.48043 11.1053 2.29289 11.2929C2.10536 11.4804 2 11.7348 2 12C2 12.2652 2.10536 12.5195 2.29289 12.7071C2.48043 12.8946 2.73478 13 3 13H12.582L10.047 15.536C9.86484 15.7246 9.76405 15.9772 9.76633 16.2394C9.7686 16.5016 9.87377 16.7524 10.0592 16.9378C10.2446 17.1232 10.4954 17.2284 10.7576 17.2307C11.0198 17.2329 11.2724 17.1321 11.461 16.95L15.657 12.754C15.765 12.6603 15.8517 12.5445 15.9111 12.4144C15.9704 12.2843 16.0012 12.143 16.0012 12C16.0012 11.857 15.9704 11.7156 15.9111 11.5856C15.8517 11.4555 15.765 11.3397 15.657 11.246L11.46 7.04998C11.3678 6.95447 11.2574 6.87829 11.1354 6.82588C11.0134 6.77347 10.8822 6.74588 10.7494 6.74473C10.6166 6.74357 10.4849 6.76888 10.362 6.81916C10.2392 6.86944 10.1275 6.94369 10.0336 7.03758C9.93971 7.13148 9.86546 7.24313 9.81518 7.36602C9.7649 7.48892 9.7396 7.6206 9.74075 7.75338C9.7419 7.88616 9.76949 8.01738 9.8219 8.13938C9.87431 8.26139 9.95049 8.37173 10.046 8.46398L12.582 11H3Z" fill="url(#paint1_linear_252_1722)"/>
<defs>
<linearGradient id="paint0_linear_252_1722" x1="2.37143" y1="12" x2="22.2" y2="12" gradientUnits="userSpaceOnUse">
<stop stop-color="#FF6417"/>
<stop offset="1" stop-color="#7000FF" stop-opacity="0.94"/>
</linearGradient>
<linearGradient id="paint1_linear_252_1722" x1="2.26002" y1="11.9877" x2="16.1412" y2="11.9877" gradientUnits="userSpaceOnUse">
<stop stop-color="#FF6417"/>
<stop offset="1" stop-color="#7000FF" stop-opacity="0.94"/>
</linearGradient>
</defs>
</svg>
