<svg width="158" height="16" viewBox="0 0 158 16" fill="none" xmlns="http://www.w3.org/2000/svg">
<path d="M9.64 2.58H2.42V7.02H9.16V8.6H2.42V13.42H9.64V15H0.76V0.999999H9.64V2.58ZM22.5034 15H20.5234L16.8434 9.2L13.1834 15H11.2034L15.8234 7.8L11.4034 0.999999H13.3834L16.8634 6.48L20.3634 0.999999H22.3434L17.8834 7.9L22.5034 15ZM30.818 15.22C26.698 15.22 23.618 12.14 23.618 8C23.618 3.86 26.698 0.779999 30.818 0.779999C33.978 0.779999 36.498 2.64 37.458 5.46H35.678C34.838 3.58 33.038 2.36 30.798 2.36C27.638 2.36 25.298 4.78 25.298 8C25.298 11.22 27.638 13.64 30.798 13.64C33.038 13.64 34.838 12.42 35.678 10.54H37.458C36.498 13.36 33.978 15.22 30.818 15.22ZM46.7359 0.779999C50.7959 0.779999 53.9359 3.88 53.9359 8C53.9359 12.12 50.7959 15.22 46.7159 15.22C42.6559 15.22 39.4959 12.12 39.4959 8C39.4959 3.88 42.6559 0.779999 46.7359 0.779999ZM46.7159 2.36C43.5959 2.36 41.1759 4.78 41.1759 8C41.1759 11.22 43.5959 13.64 46.7159 13.64C49.8359 13.64 52.2559 11.24 52.2559 8C52.2559 4.76 49.8359 2.36 46.7159 2.36ZM56.8538 15V0.999999H58.5138V15H56.8538ZM71.7295 0.999999H73.3895V15H71.3295L63.4295 3.22L63.5895 9.14V15H61.9295V0.999999H63.9695L71.8695 12.78L71.7295 6.86V0.999999ZM83.4352 0.779999C87.4952 0.779999 90.6352 3.88 90.6352 8C90.6352 12.12 87.4952 15.22 83.4152 15.22C79.3552 15.22 76.1952 12.12 76.1952 8C76.1952 3.88 79.3552 0.779999 83.4352 0.779999ZM83.4152 2.36C80.2952 2.36 77.8752 4.78 77.8752 8C77.8752 11.22 80.2952 13.64 83.4152 13.64C86.5352 13.64 88.9552 11.24 88.9552 8C88.9552 4.76 86.5352 2.36 83.4152 2.36ZM98.413 7.08C101.753 7.82 103.733 8.46 103.733 11.1C103.733 13.96 101.253 15.22 98.613 15.22C94.893 15.22 93.113 13.26 92.673 10.8H94.353C94.813 12.66 96.133 13.66 98.573 13.66C100.733 13.66 102.053 12.76 102.053 11.16C102.053 9.62 100.753 9.3 98.033 8.7C95.073 8.04 93.053 7.32 93.053 4.84C93.053 2.22 95.373 0.779999 98.073 0.779999C101.353 0.779999 103.033 2.4 103.533 4.5H101.853C101.333 3.16 100.133 2.34 98.093 2.34C96.033 2.34 94.713 3.28 94.713 4.84C94.713 6 95.593 6.44 98.413 7.08Z" fill="url(#paint0_linear_8_113)"/>
<path d="M107.525 12.98C108.185 12.98 108.685 13.46 108.685 14.1C108.685 14.74 108.185 15.22 107.525 15.22C106.865 15.22 106.365 14.74 106.365 14.1C106.365 13.46 106.865 12.98 107.525 12.98ZM118.605 15.26C114.405 15.26 111.345 12.12 111.345 8C111.345 3.88 114.405 0.739999 118.605 0.739999C122.045 0.739999 124.665 2.9 125.425 5.94H121.785C121.225 4.72 120.085 3.98 118.605 3.98C116.285 3.98 114.785 5.66 114.785 8C114.785 10.34 116.285 12.02 118.605 12.02C120.085 12.02 121.225 11.28 121.785 10.06H125.425C124.665 13.1 122.045 15.26 118.605 15.26ZM134.249 0.739999C138.389 0.739999 141.569 3.88 141.569 8C141.569 12.12 138.389 15.26 134.249 15.26C130.109 15.26 126.929 12.12 126.929 8C126.929 3.88 130.109 0.739999 134.249 0.739999ZM134.249 3.98C132.009 3.98 130.369 5.66 130.369 8C130.369 10.34 132.009 12.02 134.249 12.02C136.489 12.02 138.129 10.34 138.129 8C138.129 5.66 136.489 3.98 134.249 3.98ZM153.919 0.999999H157.779V15H154.379V5.76L150.879 11.1H150.559L147.059 5.76V15H143.659V0.999999H147.519L150.719 5.8L153.919 0.999999Z" fill="white"/>
<defs>
<linearGradient id="paint0_linear_8_113" x1="1.99" y1="7.99999" x2="99.0798" y2="20.1895" gradientUnits="userSpaceOnUse">
<stop stop-color="#FF6417"/>
<stop offset="1" stop-color="#7000FF" stop-opacity="0.94"/>
</linearGradient>
</defs>
</svg>
