<svg width="36" height="21" viewBox="0 0 36 21" fill="none" xmlns="http://www.w3.org/2000/svg">
<path fill-rule="evenodd" clip-rule="evenodd" d="M18 18.4917C16.0935 20.0558 13.6204 21 10.918 21C4.88817 21 0 16.299 0 10.5C0 4.70101 4.88817 0 10.918 0C13.6204 0 16.0935 0.944212 18 2.50831C19.9065 0.944212 22.3796 0 25.082 0C31.1118 0 36 4.70101 36 10.5C36 16.299 31.1118 21 25.082 21C22.3796 21 19.9065 20.0558 18 18.4917Z" fill="#9494B2"/>
<path fill-rule="evenodd" clip-rule="evenodd" d="M18 18.4917C20.3475 16.5658 21.8361 13.7001 21.8361 10.5C21.8361 7.29992 20.3475 4.4342 18 2.50831C19.9065 0.944212 22.3796 0 25.082 0C31.1118 0 36 4.70101 36 10.5C36 16.299 31.1118 21 25.082 21C22.3796 21 19.9065 20.0558 18 18.4917Z" fill="#5E5E7D"/>
<path fill-rule="evenodd" clip-rule="evenodd" d="M18.0001 18.4916C20.3476 16.5657 21.8361 13.7 21.8361 10.5C21.8361 7.2999 20.3476 4.43419 18.0001 2.5083C15.6526 4.43419 14.1641 7.2999 14.1641 10.5C14.1641 13.7 15.6526 16.5657 18.0001 18.4916Z" fill="#9494B2"/>
</svg>
