<svg width="25" height="19" viewBox="0 0 25 19" fill="none" xmlns="http://www.w3.org/2000/svg">
<path d="M24.3424 15.5C24.3424 16.2072 24.0652 16.8855 23.5716 17.3856C23.0781 17.8857 22.4088 18.1666 21.7108 18.1666H3.28978C2.59184 18.1666 1.92249 17.8857 1.42897 17.3856C0.935458 16.8855 0.658203 16.2072 0.658203 15.5V12.8333H24.3424V15.5Z" fill="#DD2E44"/>
<path d="M24.3424 12.8333H0.658203V6.16658H24.3424V12.8333Z" fill="#3B88C3"/>
<path d="M21.7108 0.833293H3.28978C2.59184 0.833293 1.92249 1.11424 1.42897 1.61434C0.935458 2.11444 0.658203 2.79272 0.658203 3.49996V6.16663H24.3424V3.49996C24.3424 2.79272 24.0652 2.11444 23.5716 1.61434C23.0781 1.11424 22.4088 0.833293 21.7108 0.833293Z" fill="#EEEEEE"/>
</svg>
