<svg width="38" height="38" viewBox="0 0 38 38" fill="none" xmlns="http://www.w3.org/2000/svg">
<path opacity="0.2" fill-rule="evenodd" clip-rule="evenodd" d="M19 38C29.4934 38 38 29.4934 38 19C38 8.50659 29.4934 0 19 0C8.50659 0 0 8.50659 0 19C0 29.4934 8.50659 38 19 38Z" fill="#727297"/>
<path fill-rule="evenodd" clip-rule="evenodd" d="M17.3355 10.2307C18.379 10.2307 19.4186 10.2307 20.4621 10.2307C20.4007 10.9366 20.3355 11.6463 20.2779 12.3522C21.4941 12.4404 22.6795 12.8317 23.746 13.411C23.2856 14.5696 22.8214 15.7282 22.3572 16.8868C21.4595 16.1233 20.2779 15.7013 19.1002 15.7167C18.8048 15.7243 18.4979 15.7819 18.2524 15.9507C18.0912 16.0619 17.9723 16.2346 17.9378 16.4264C17.9109 16.5798 17.9186 16.7525 18.003 16.8906C18.0989 17.044 18.2677 17.1361 18.4365 17.1937C18.7818 17.3164 19.1539 17.3241 19.5145 17.3625C20.3623 17.466 21.214 17.6118 22.0158 17.9149C22.6373 18.1527 23.2319 18.5095 23.6578 19.0313C24.0606 19.5108 24.2946 20.117 24.3828 20.7384C24.4864 21.4558 24.4557 22.2001 24.2332 22.8983C24.0606 23.4584 23.7652 23.9801 23.3815 24.4213C22.5874 25.342 21.4212 25.8945 20.2242 26.0364C20.2626 26.7922 20.3086 27.5441 20.3508 28.2999C19.3611 28.2999 18.3751 28.2999 17.3892 28.2999C17.4275 27.5518 17.4774 26.8037 17.5119 26.0556C16.7178 26.0287 15.9314 25.8523 15.191 25.5722C14.4736 25.2998 13.7907 24.9392 13.1539 24.5172C13.6219 23.3126 14.0899 22.108 14.5618 20.8996C15.0951 21.3484 15.6628 21.7666 16.2843 22.085C16.9518 22.4264 17.6923 22.6451 18.4442 22.6528C18.801 22.6566 19.1692 22.6374 19.5068 22.5147C19.714 22.4379 19.9173 22.3037 20.0094 22.0927C20.1053 21.8702 20.0976 21.5901 19.9519 21.3906C19.8483 21.2563 19.7025 21.1643 19.549 21.0991C19.3419 21.0147 19.127 20.9686 18.9084 20.9341C18.1027 20.8037 17.2933 20.6962 16.5145 20.443C15.8892 20.2397 15.2792 19.9558 14.7805 19.5185C14.4659 19.2461 14.205 18.9123 14.0209 18.5364C13.7447 17.9763 13.6411 17.3433 13.6488 16.7218C13.6488 16.0274 13.7907 15.3215 14.136 14.7116C14.4352 14.1668 14.8917 13.7218 15.4058 13.3803C16.0273 12.9699 16.7217 12.6898 17.4275 12.4635C17.3969 11.7192 17.3662 10.975 17.3355 10.2307Z" fill="white"/>
</svg>
