<svg width="41" height="14" viewBox="0 0 41 14" fill="none" xmlns="http://www.w3.org/2000/svg">
<path fill-rule="evenodd" clip-rule="evenodd" d="M10.2504 13.8909H6.70214L4.04135 3.03015C3.91506 2.53055 3.6469 2.08888 3.25246 1.88071C2.26807 1.35758 1.18334 0.941253 0 0.731278V0.313137H5.71602C6.50491 0.313137 7.09658 0.941253 7.1952 1.67074L8.57576 9.505L12.1223 0.313137H15.572L10.2504 13.8909ZM17.5442 13.8909H14.1932L16.9526 0.313137H20.3036L17.5442 13.8909ZM24.6391 4.07461C24.7377 3.34332 25.3294 2.92518 26.0197 2.92518C27.1044 2.82019 28.286 3.03016 29.2721 3.55148L29.8638 0.628116C28.8777 0.209975 27.7929 0 26.8086 0C23.5561 0 21.1894 1.88073 21.1894 4.49094C21.1894 6.47666 22.8658 7.51929 24.0492 8.14741C25.3294 8.77372 25.8224 9.19186 25.7238 9.81816C25.7238 10.7576 24.7377 11.1758 23.7533 11.1758C22.57 11.1758 21.3866 10.8626 20.3036 10.3395L19.712 13.2647C20.8953 13.786 22.1755 13.996 23.3589 13.996C27.0058 14.0991 29.2721 12.2202 29.2721 9.40002C29.2721 5.84854 24.6391 5.64038 24.6391 4.07461ZM41 13.8909L38.3392 0.313137H35.4812C34.8895 0.313137 34.2979 0.731278 34.1006 1.35758L29.1735 13.8909H32.6232L33.3117 11.907H37.5503L37.9448 13.8909H41ZM35.9743 3.9696L36.9586 9.08685H34.1992L35.9743 3.9696Z" fill="#9494B2"/>
</svg>
