<svg width="38" height="38" viewBox="0 0 38 38" fill="none" xmlns="http://www.w3.org/2000/svg">
<path d="M37.43 23.5966C34.8923 33.7752 24.5824 39.9692 14.4026 37.4315C4.22749 34.8939 -1.96711 24.584 0.571176 14.4059C3.10768 4.22607 13.417 -1.96912 23.5938 0.568572C33.7731 3.10626 39.9671 13.4173 37.4294 23.5966H37.43Z" fill="#F7931A"/>
<path fill-rule="evenodd" clip-rule="evenodd" d="M24.7223 16.7926C24.9785 15.0775 23.6726 14.1555 21.8871 13.5405L22.4663 11.2171L21.0517 10.8647L20.4878 13.1268C20.1164 13.0341 19.7345 12.9467 19.3551 12.8601L19.923 10.5832L18.5096 10.2307L17.93 12.5532C17.6223 12.4831 17.3202 12.4138 17.027 12.3409L17.0286 12.3337L15.0783 11.8467L14.7021 13.3572C14.7021 13.3572 15.7513 13.5976 15.7292 13.6125C16.3019 13.7555 16.4059 14.1346 16.3881 14.4351L15.7284 17.0818C15.7678 17.0919 15.819 17.1064 15.8754 17.1289L15.7264 17.0919L14.8011 20.7996C14.7311 20.9736 14.5534 21.2346 14.1531 21.1355C14.1672 21.156 13.1251 20.8789 13.1251 20.8789L12.4231 22.4981L14.2638 22.9569C14.4715 23.009 14.6767 23.0625 14.8797 23.1154L14.8799 23.1155L14.8802 23.1156C15.0116 23.1498 15.142 23.1839 15.2716 23.2171L14.6864 25.5674L16.0989 25.9198L16.679 23.5949C17.0644 23.6997 17.439 23.7963 17.8056 23.8874L17.228 26.2014L18.6422 26.5538L19.2274 24.2084C21.6389 24.6647 23.4527 24.4807 24.2152 22.3C24.8302 20.5438 24.185 19.5308 22.9162 18.8698C23.8402 18.6559 24.5362 18.0481 24.7219 16.7926H24.7223ZM21.4907 21.3236C21.0892 22.9354 18.5658 22.2685 17.4122 21.9636C17.3089 21.9363 17.2166 21.9119 17.1377 21.8923L17.9143 18.7792C18.0106 18.8032 18.1283 18.8296 18.2616 18.8595L18.2617 18.8595C19.4551 19.1273 21.9009 19.6762 21.4911 21.3236H21.4907ZM18.5016 17.4149C19.4641 17.6717 21.5622 18.2314 21.9277 16.7672C22.3014 15.2693 20.2612 14.8178 19.2648 14.5973C19.1528 14.5725 19.054 14.5506 18.9733 14.5305L18.2692 17.3541C18.3358 17.3707 18.414 17.3915 18.5016 17.4149Z" fill="white"/>
</svg>
