<svg width="26" height="22" viewBox="0 0 26 22" fill="none" xmlns="http://www.w3.org/2000/svg">
<path d="M23.3382 5.696C23.3534 5.92459 23.3534 6.15425 23.3534 6.385C23.3534 13.4343 17.9866 21.5625 8.17592 21.5625V21.5582C5.278 21.5625 2.43967 20.7327 0 19.1673C0.421417 19.2182 0.845 19.2431 1.26967 19.2442C3.6725 19.2463 6.006 18.4403 7.89425 16.9562C5.61167 16.9128 3.60967 15.4243 2.91092 13.2512C3.71042 13.405 4.53375 13.3736 5.31917 13.1602C2.82967 12.6575 1.04 10.4703 1.04 7.93092C1.04 7.90817 1.04 7.88542 1.04 7.86375C1.78208 8.27759 2.61192 8.50617 3.46125 8.53109C1.11692 6.96567 0.39325 3.84784 1.80917 1.41034C4.5175 4.74267 8.51392 6.7685 12.8028 6.98409C12.3728 5.13159 12.961 3.19025 14.3455 1.887C16.4937 -0.133414 19.8727 -0.0294138 21.8931 2.11884C23.088 1.88375 24.2331 1.445 25.2807 0.824253C24.882 2.05925 24.0489 3.10792 22.9353 3.77525C23.9937 3.6485 25.0261 3.36575 26 2.93459C25.2839 4.006 24.3826 4.94092 23.3382 5.696Z" fill="#29ABE2"/>
</svg>
