<svg width="37" height="37" viewBox="0 0 37 37" fill="none" xmlns="http://www.w3.org/2000/svg">
<rect width="37" height="37" rx="4" fill="#F7931A"/>
<path fill-rule="evenodd" clip-rule="evenodd" d="M16.7891 13.9649L16.8024 16.71H20.7213C21.4173 16.71 21.9813 16.1412 21.9778 15.4417L21.9768 15.2332C21.9735 14.5336 21.404 13.9649 20.7079 13.9649H17.3256H16.7891ZM22.4753 20.8827L22.4742 20.6623C22.4705 19.8821 21.836 19.2485 21.0598 19.2485H20.7337H16.8149L16.8298 22.2966H21.0745C21.8508 22.2966 22.4791 21.662 22.4753 20.8827ZM23.719 17.7667C24.4988 18.4889 24.9933 19.5182 24.9989 20.6624L25 20.8828C25.0105 23.0612 23.255 24.8341 21.0867 24.8341H20.9907L20.9963 26H18.4716L18.466 24.8341H17.4312L17.4369 26H14.9122L14.9065 24.8341H14.3172H13.0651L13.0528 22.2967H14.3049L14.2901 19.2486L14.2777 16.7101L14.2644 13.965H13.0123L13 11.4266H14.8414L14.8346 10H17.3592L17.3661 11.4266H18.401L18.394 10H20.9188L20.9256 11.4386C22.9077 11.5594 24.4918 13.2125 24.5016 15.2333L24.5026 15.4418C24.5069 16.3175 24.2122 17.1224 23.719 17.7667Z" fill="white"/>
</svg>
