<svg width="20" height="21" viewBox="0 0 20 21" fill="none" xmlns="http://www.w3.org/2000/svg">
<path d="M0 10.5601C0.000563232 12.9561 0.850471 15.2733 2.39696 17.0953C3.94345 18.9173 6.08511 20.1245 8.437 20.5V13.4679H5.9V10.5601H8.44V8.34651C8.38391 7.82842 8.44189 7.30427 8.60982 6.81127C8.77775 6.31827 9.0515 5.86852 9.41164 5.49396C9.77178 5.1194 10.2095 4.82923 10.6936 4.64404C11.1778 4.45886 11.6965 4.3832 12.213 4.42246C12.963 4.43453 13.713 4.50195 14.453 4.62369V7.09786H13.189C12.9742 7.06955 12.7558 7.09017 12.5499 7.15821C12.3441 7.22624 12.1561 7.33995 11.9998 7.49093C11.8435 7.64191 11.7229 7.8263 11.647 8.03047C11.571 8.23464 11.5416 8.45337 11.561 8.6705V10.5601H14.332L13.889 13.4689H11.561V20.5C13.4486 20.1998 15.2112 19.3618 16.6402 18.085C18.0691 16.8082 19.1045 15.1461 19.6238 13.2957C20.143 11.4452 20.1244 9.48372 19.5702 7.64354C19.0159 5.80335 17.9492 4.16149 16.4964 2.91235C15.0435 1.6632 13.2653 0.859089 11.3724 0.595206C9.4794 0.331324 7.55092 0.618724 5.81525 1.42338C4.07958 2.22804 2.60942 3.51625 1.5788 5.13551C0.548194 6.75476 0.00030337 8.63724 0 10.5601Z" fill="white" fill-opacity="0.8"/>
</svg>
